<svg width="307" height="480" viewBox="0 0 307 480" fill="none" xmlns="http://www.w3.org/2000/svg">
<rect x="307" y="480" width="307" height="480" rx="16" transform="rotate(180 307 480)" fill="#12822B"/>
<rect width="248" height="88" rx="16" transform="matrix(1 0 0 -1 30 450)" fill="#D9D9D9" fill-opacity="0.15"/>
<path d="M70 77.6512H66.1818C64.4941 77.6512 62.8755 76.9664 61.682 75.7474C60.4886 74.5285 59.8182 72.8752 59.8182 71.1512V67.2512H56V62.0512H59.8182V51.6512H64.9091V62.0512H68.7273L70 67.2512H64.9091V71.1512C64.9091 71.496 65.0432 71.8267 65.2819 72.0705C65.5205 72.3143 65.8443 72.4512 66.1818 72.4512H70V77.6512Z" stroke="#FBF9FC" stroke-width="1.64017" stroke-linecap="round" stroke-linejoin="round"/>
<path d="M132.98 71.3656C132.827 71.9772 132.515 72.5376 132.076 72.9901C131.637 73.4427 131.087 73.7714 130.48 73.943C128.264 74.4843 119.397 74.4843 119.397 74.4843C119.397 74.4843 110.531 74.4843 108.315 73.8915C107.708 73.7198 107.157 73.3911 106.719 72.9386C106.28 72.4861 105.968 71.9257 105.815 71.3141C105.409 69.0646 105.211 66.7827 105.222 64.497C105.207 62.194 105.406 59.8947 105.815 57.6283C105.983 57.0357 106.302 56.4966 106.74 56.0632C107.178 55.6298 107.72 55.3166 108.315 55.154C110.531 54.5612 119.397 54.5612 119.397 54.5612C119.397 54.5612 128.264 54.5612 130.48 55.154C131.087 55.3257 131.637 55.6543 132.076 56.1069C132.515 56.5594 132.827 57.1198 132.98 57.7314C133.383 59.9639 133.581 62.2285 133.573 64.497C133.587 66.7999 133.389 69.0992 132.98 71.3656V71.3656Z" stroke="#FBF9FC" stroke-width="1.64017" stroke-linecap="round" stroke-linejoin="round"/>
<path d="M116.498 60.2826L123.908 64.4966L116.498 68.7106V60.2826Z" stroke="#FBF9FC" stroke-width="1.64017" stroke-linecap="round" stroke-linejoin="round"/>
<path d="M188.327 78H175.112C171.463 78 168.505 75.0417 168.505 71.3926V58.1777C168.505 54.5285 171.463 51.5702 175.112 51.5702H188.327C191.976 51.5702 194.935 54.5285 194.935 58.1777V71.3926C194.935 75.0417 191.976 78 188.327 78Z" stroke="#FBF9FC" stroke-width="1.64017" stroke-linecap="round" stroke-linejoin="round"/>
<path d="M187.006 65.6175C187.169 64.5177 186.981 63.3945 186.469 62.4076C185.957 61.4207 185.147 60.6204 184.153 60.1206C183.16 59.6207 182.035 59.4467 180.937 59.6233C179.839 59.8 178.825 60.3182 178.039 61.1044C177.253 61.8906 176.735 62.9047 176.558 64.0024C176.381 65.1001 176.555 66.2255 177.055 67.2187C177.555 68.2118 178.355 69.022 179.342 69.5341C180.329 70.0462 181.452 70.234 182.552 70.0709C183.674 69.9046 184.713 69.3818 185.515 68.5799C186.317 67.778 186.839 66.7394 187.006 65.6175Z" stroke="#FBF9FC" stroke-width="1.64017" stroke-linecap="round" stroke-linejoin="round"/>
<path d="M188.988 72.054H189.003" stroke="#FBF9FC" stroke-width="1.64017" stroke-linecap="round" stroke-linejoin="round"/>
<path d="M259 75.6378C257.738 74.7343 256.34 74.0433 254.861 73.5914C254.067 74.5176 253.012 75.1741 251.838 75.472C250.665 75.77 249.429 75.695 248.299 75.2573C247.169 74.8196 246.198 74.0403 245.519 73.0247C244.839 72.0091 244.484 70.8062 244.5 69.5788V68.2413C242.183 68.1804 239.888 68.7017 237.818 69.7588C235.748 70.8159 233.968 72.3761 232.636 74.3003C232.636 74.3003 227.364 62.2626 239.227 56.9125C236.513 55.0427 233.279 54.1052 230 54.2375C241.864 47.5499 256.364 54.2375 256.364 69.619C256.362 69.9915 256.327 70.3632 256.258 70.7291C257.604 72.0753 258.553 73.775 259 75.6378Z" stroke="#FBF9FC" stroke-width="1.64017" stroke-linecap="round" stroke-linejoin="round"/>
<g clip-path="url(#clip0_1_754)">
<path d="M254 338H54V138H254V338Z" fill="white"/>
<path d="M120.848 325.879H114.606V319.636H120.848V325.879Z" fill="black"/>
<path d="M139.03 325.879H132.788V319.636H139.03V325.879Z" fill="black"/>
<path d="M145.091 325.879H138.848V319.636H145.091V325.879Z" fill="black"/>
<path d="M157.212 325.879H150.969V319.636H157.212V325.879Z" fill="black"/>
<path d="M169.333 325.879H163.091V319.636H169.333V325.879Z" fill="black"/>
<path d="M175.394 325.879H169.151V319.636H175.394V325.879Z" fill="black"/>
<path d="M181.454 325.879H175.212V319.636H181.454V325.879Z" fill="black"/>
<path d="M193.576 325.879H187.333V319.636H193.576V325.879Z" fill="black"/>
<path d="M120.848 319.818H114.606V313.576H120.848V319.818Z" fill="black"/>
<path d="M126.909 319.818H120.667V313.576H126.909V319.818Z" fill="black"/>
<path d="M132.969 319.818H126.727V313.576H132.969V319.818Z" fill="black"/>
<path d="M157.212 319.818H150.969V313.576H157.212V319.818Z" fill="black"/>
<path d="M175.394 319.818H169.151V313.576H175.394V319.818Z" fill="black"/>
<path d="M187.515 319.818H181.273V313.576H187.515V319.818Z" fill="black"/>
<path d="M120.848 313.758H114.606V307.515H120.848V313.758Z" fill="black"/>
<path d="M181.454 313.758H175.212V307.515H181.454V313.758Z" fill="black"/>
<path d="M187.515 313.758H181.273V307.515H187.515V313.758Z" fill="black"/>
<path d="M193.576 313.758H187.333V307.515H193.576V313.758Z" fill="black"/>
<path d="M132.969 307.697H126.727V301.455H132.969V307.697Z" fill="black"/>
<path d="M151.151 307.697H144.909V301.455H151.151V307.697Z" fill="black"/>
<path d="M157.212 307.697H150.969V301.455H157.212V307.697Z" fill="black"/>
<path d="M163.273 307.697H157.03V301.455H163.273V307.697Z" fill="black"/>
<path d="M169.333 307.697H163.091V301.455H169.333V307.697Z" fill="black"/>
<path d="M175.394 307.697H169.151V301.455H175.394V307.697Z" fill="black"/>
<path d="M187.515 307.697H181.273V301.455H187.515V307.697Z" fill="black"/>
<path d="M126.909 301.636H120.667V295.394H126.909V301.636Z" fill="black"/>
<path d="M132.969 301.636H126.727V295.394H132.969V301.636Z" fill="black"/>
<path d="M139.03 301.636H132.788V295.394H139.03V301.636Z" fill="black"/>
<path d="M145.091 301.636H138.848V295.394H145.091V301.636Z" fill="black"/>
<path d="M169.333 301.636H163.091V295.394H169.333V301.636Z" fill="black"/>
<path d="M181.454 301.636H175.212V295.394H181.454V301.636Z" fill="black"/>
<path d="M187.515 301.636H181.273V295.394H187.515V301.636Z" fill="black"/>
<path d="M120.848 295.576H114.606V289.333H120.848V295.576Z" fill="black"/>
<path d="M132.969 295.576H126.727V289.333H132.969V295.576Z" fill="black"/>
<path d="M145.091 295.576H138.848V289.333H145.091V295.576Z" fill="black"/>
<path d="M163.273 295.576H157.03V289.333H163.273V295.576Z" fill="black"/>
<path d="M169.333 295.576H163.091V289.333H169.333V295.576Z" fill="black"/>
<path d="M181.454 295.576H175.212V289.333H181.454V295.576Z" fill="black"/>
<path d="M120.848 289.515H114.606V283.273H120.848V289.515Z" fill="black"/>
<path d="M132.969 289.515H126.727V283.273H132.969V289.515Z" fill="black"/>
<path d="M145.091 289.515H138.848V283.273H145.091V289.515Z" fill="black"/>
<path d="M157.212 289.515H150.969V283.273H157.212V289.515Z" fill="black"/>
<path d="M169.333 289.515H163.091V283.273H169.333V289.515Z" fill="black"/>
<path d="M181.454 289.515H175.212V283.273H181.454V289.515Z" fill="black"/>
<path d="M193.576 289.515H187.333V283.273H193.576V289.515Z" fill="black"/>
<path d="M120.848 283.455H114.606V277.212H120.848V283.455Z" fill="black"/>
<path d="M139.03 283.455H132.788V277.212H139.03V283.455Z" fill="black"/>
<path d="M145.091 283.455H138.848V277.212H145.091V283.455Z" fill="black"/>
<path d="M163.273 283.455H157.03V277.212H163.273V283.455Z" fill="black"/>
<path d="M169.333 283.455H163.091V277.212H169.333V283.455Z" fill="black"/>
<path d="M187.515 283.455H181.273V277.212H187.515V283.455Z" fill="black"/>
<path d="M84.4846 277.394H78.2422V271.151H84.4846V277.394Z" fill="black"/>
<path d="M90.5454 277.394H84.303V271.151H90.5454V277.394Z" fill="black"/>
<path d="M96.6059 277.394H90.3635V271.151H96.6059V277.394Z" fill="black"/>
<path d="M108.727 277.394H102.485V271.151H108.727V277.394Z" fill="black"/>
<path d="M120.848 277.394H114.606V271.151H120.848V277.394Z" fill="black"/>
<path d="M145.091 277.394H138.848V271.151H145.091V277.394Z" fill="black"/>
<path d="M157.212 277.394H150.969V271.151H157.212V277.394Z" fill="black"/>
<path d="M163.273 277.394H157.03V271.151H163.273V277.394Z" fill="black"/>
<path d="M181.454 277.394H175.212V271.151H181.454V277.394Z" fill="black"/>
<path d="M199.636 277.394H193.394V271.151H199.636V277.394Z" fill="black"/>
<path d="M205.697 277.394H199.454V271.151H205.697V277.394Z" fill="black"/>
<path d="M211.758 277.394H205.515V271.151H211.758V277.394Z" fill="black"/>
<path d="M229.939 277.394H223.697V271.151H229.939V277.394Z" fill="black"/>
<path d="M236 277.394H229.757V271.151H236V277.394Z" fill="black"/>
<path d="M242.061 277.394H235.818V271.151H242.061V277.394Z" fill="black"/>
<path d="M84.4846 271.333H78.2422V265.091H84.4846V271.333Z" fill="black"/>
<path d="M114.788 271.333H108.545V265.091H114.788V271.333Z" fill="black"/>
<path d="M126.909 271.333H120.667V265.091H126.909V271.333Z" fill="black"/>
<path d="M132.969 271.333H126.727V265.091H132.969V271.333Z" fill="black"/>
<path d="M157.212 271.333H150.969V265.091H157.212V271.333Z" fill="black"/>
<path d="M163.273 271.333H157.03V265.091H163.273V271.333Z" fill="black"/>
<path d="M175.394 271.333H169.151V265.091H175.394V271.333Z" fill="black"/>
<path d="M211.758 271.333H205.515V265.091H211.758V271.333Z" fill="black"/>
<path d="M217.818 271.333H211.576V265.091H217.818V271.333Z" fill="black"/>
<path d="M223.879 271.333H217.636V265.091H223.879V271.333Z" fill="black"/>
<path d="M229.939 271.333H223.697V265.091H229.939V271.333Z" fill="black"/>
<path d="M242.061 271.333H235.818V265.091H242.061V271.333Z" fill="black"/>
<path d="M78.4241 265.273H72.1816V259.03H78.4241V265.273Z" fill="black"/>
<path d="M84.4846 265.273H78.2422V259.03H84.4846V265.273Z" fill="black"/>
<path d="M96.6059 265.273H90.3635V259.03H96.6059V265.273Z" fill="black"/>
<path d="M102.666 265.273H96.4241V259.03H102.666V265.273Z" fill="black"/>
<path d="M108.727 265.273H102.485V259.03H108.727V265.273Z" fill="black"/>
<path d="M132.969 265.273H126.727V259.03H132.969V265.273Z" fill="black"/>
<path d="M151.151 265.273H144.909V259.03H151.151V265.273Z" fill="black"/>
<path d="M157.212 265.273H150.969V259.03H157.212V265.273Z" fill="black"/>
<path d="M169.333 265.273H163.091V259.03H169.333V265.273Z" fill="black"/>
<path d="M199.636 265.273H193.394V259.03H199.636V265.273Z" fill="black"/>
<path d="M205.697 265.273H199.454V259.03H205.697V265.273Z" fill="black"/>
<path d="M229.939 265.273H223.697V259.03H229.939V265.273Z" fill="black"/>
<path d="M84.4846 259.212H78.2422V252.97H84.4846V259.212Z" fill="black"/>
<path d="M90.5454 259.212H84.303V252.97H90.5454V259.212Z" fill="black"/>
<path d="M114.788 259.212H108.545V252.97H114.788V259.212Z" fill="black"/>
<path d="M120.848 259.212H114.606V252.97H120.848V259.212Z" fill="black"/>
<path d="M126.909 259.212H120.667V252.97H126.909V259.212Z" fill="black"/>
<path d="M132.969 259.212H126.727V252.97H132.969V259.212Z" fill="black"/>
<path d="M139.03 259.212H132.788V252.97H139.03V259.212Z" fill="black"/>
<path d="M163.273 259.212H157.03V252.97H163.273V259.212Z" fill="black"/>
<path d="M175.394 259.212H169.151V252.97H175.394V259.212Z" fill="black"/>
<path d="M187.515 259.212H181.273V252.97H187.515V259.212Z" fill="black"/>
<path d="M199.636 259.212H193.394V252.97H199.636V259.212Z" fill="black"/>
<path d="M205.697 259.212H199.454V252.97H205.697V259.212Z" fill="black"/>
<path d="M211.758 259.212H205.515V252.97H211.758V259.212Z" fill="black"/>
<path d="M217.818 259.212H211.576V252.97H217.818V259.212Z" fill="black"/>
<path d="M223.879 259.212H217.636V252.97H223.879V259.212Z" fill="black"/>
<path d="M236 259.212H229.757V252.97H236V259.212Z" fill="black"/>
<path d="M78.4241 253.151H72.1816V246.909H78.4241V253.151Z" fill="black"/>
<path d="M90.5454 253.151H84.303V246.909H90.5454V253.151Z" fill="black"/>
<path d="M96.6059 253.151H90.3635V246.909H96.6059V253.151Z" fill="black"/>
<path d="M102.666 253.151H96.4241V246.909H102.666V253.151Z" fill="black"/>
<path d="M108.727 253.151H102.485V246.909H108.727V253.151Z" fill="black"/>
<path d="M120.848 253.151H114.606V246.909H120.848V253.151Z" fill="black"/>
<path d="M151.151 253.151H144.909V246.909H151.151V253.151Z" fill="black"/>
<path d="M157.212 253.151H150.969V246.909H157.212V253.151Z" fill="black"/>
<path d="M163.273 253.151H157.03V246.909H163.273V253.151Z" fill="black"/>
<path d="M169.333 253.151H163.091V246.909H169.333V253.151Z" fill="black"/>
<path d="M187.515 253.151H181.273V246.909H187.515V253.151Z" fill="black"/>
<path d="M193.576 253.151H187.333V246.909H193.576V253.151Z" fill="black"/>
<path d="M199.636 253.151H193.394V246.909H199.636V253.151Z" fill="black"/>
<path d="M211.758 253.151H205.515V246.909H211.758V253.151Z" fill="black"/>
<path d="M229.939 253.151H223.697V246.909H229.939V253.151Z" fill="black"/>
<path d="M236 253.151H229.757V246.909H236V253.151Z" fill="black"/>
<path d="M242.061 253.151H235.818V246.909H242.061V253.151Z" fill="black"/>
<path d="M72.3635 247.091H66.1211V240.849H72.3635V247.091Z" fill="black"/>
<path d="M84.4846 247.091H78.2422V240.849H84.4846V247.091Z" fill="black"/>
<path d="M90.5454 247.091H84.303V240.849H90.5454V247.091Z" fill="black"/>
<path d="M96.6059 247.091H90.3635V240.849H96.6059V247.091Z" fill="black"/>
<path d="M102.666 247.091H96.4241V240.849H102.666V247.091Z" fill="black"/>
<path d="M114.788 247.091H108.545V240.849H114.788V247.091Z" fill="black"/>
<path d="M132.969 247.091H126.727V240.849H132.969V247.091Z" fill="black"/>
<path d="M145.091 247.091H138.848V240.849H145.091V247.091Z" fill="black"/>
<path d="M163.273 247.091H157.03V240.849H163.273V247.091Z" fill="black"/>
<path d="M181.454 247.091H175.212V240.849H181.454V247.091Z" fill="black"/>
<path d="M187.515 247.091H181.273V240.849H187.515V247.091Z" fill="black"/>
<path d="M193.576 247.091H187.333V240.849H193.576V247.091Z" fill="black"/>
<path d="M199.636 247.091H193.394V240.849H199.636V247.091Z" fill="black"/>
<path d="M205.697 247.091H199.454V240.849H205.697V247.091Z" fill="black"/>
<path d="M217.818 247.091H211.576V240.849H217.818V247.091Z" fill="black"/>
<path d="M223.879 247.091H217.636V240.849H223.879V247.091Z" fill="black"/>
<path d="M236 247.091H229.757V240.849H236V247.091Z" fill="black"/>
<path d="M242.061 247.091H235.818V240.849H242.061V247.091Z" fill="black"/>
<path d="M72.3635 241.03H66.1211V234.788H72.3635V241.03Z" fill="black"/>
<path d="M102.666 241.03H96.4241V234.788H102.666V241.03Z" fill="black"/>
<path d="M108.727 241.03H102.485V234.788H108.727V241.03Z" fill="black"/>
<path d="M120.848 241.03H114.606V234.788H120.848V241.03Z" fill="black"/>
<path d="M145.091 241.03H138.848V234.788H145.091V241.03Z" fill="black"/>
<path d="M151.151 241.03H144.909V234.788H151.151V241.03Z" fill="black"/>
<path d="M157.212 241.03H150.969V234.788H157.212V241.03Z" fill="black"/>
<path d="M193.576 241.03H187.333V234.788H193.576V241.03Z" fill="black"/>
<path d="M211.758 241.03H205.515V234.788H211.758V241.03Z" fill="black"/>
<path d="M72.3635 234.97H66.1211V228.727H72.3635V234.97Z" fill="black"/>
<path d="M78.4241 234.97H72.1816V228.727H78.4241V234.97Z" fill="black"/>
<path d="M84.4846 234.97H78.2422V228.727H84.4846V234.97Z" fill="black"/>
<path d="M114.788 234.97H108.545V228.727H114.788V234.97Z" fill="black"/>
<path d="M120.848 234.97H114.606V228.727H120.848V234.97Z" fill="black"/>
<path d="M126.909 234.97H120.667V228.727H126.909V234.97Z" fill="black"/>
<path d="M132.969 234.97H126.727V228.727H132.969V234.97Z" fill="black"/>
<path d="M145.091 234.97H138.848V228.727H145.091V234.97Z" fill="black"/>
<path d="M151.151 234.97H144.909V228.727H151.151V234.97Z" fill="black"/>
<path d="M163.273 234.97H157.03V228.727H163.273V234.97Z" fill="black"/>
<path d="M175.394 234.97H169.151V228.727H175.394V234.97Z" fill="black"/>
<path d="M181.454 234.97H175.212V228.727H181.454V234.97Z" fill="black"/>
<path d="M199.636 234.97H193.394V228.727H199.636V234.97Z" fill="black"/>
<path d="M217.818 234.97H211.576V228.727H217.818V234.97Z" fill="black"/>
<path d="M223.879 234.97H217.636V228.727H223.879V234.97Z" fill="black"/>
<path d="M78.4241 228.909H72.1816V222.667H78.4241V228.909Z" fill="black"/>
<path d="M84.4846 228.909H78.2422V222.667H84.4846V228.909Z" fill="black"/>
<path d="M90.5454 228.909H84.303V222.667H90.5454V228.909Z" fill="black"/>
<path d="M102.666 228.909H96.4241V222.667H102.666V228.909Z" fill="black"/>
<path d="M108.727 228.909H102.485V222.667H108.727V228.909Z" fill="black"/>
<path d="M114.788 228.909H108.545V222.667H114.788V228.909Z" fill="black"/>
<path d="M120.848 228.909H114.606V222.667H120.848V228.909Z" fill="black"/>
<path d="M126.909 228.909H120.667V222.667H126.909V228.909Z" fill="black"/>
<path d="M139.03 228.909H132.788V222.667H139.03V228.909Z" fill="black"/>
<path d="M145.091 228.909H138.848V222.667H145.091V228.909Z" fill="black"/>
<path d="M157.212 228.909H150.969V222.667H157.212V228.909Z" fill="black"/>
<path d="M181.454 228.909H175.212V222.667H181.454V228.909Z" fill="black"/>
<path d="M211.758 228.909H205.515V222.667H211.758V228.909Z" fill="black"/>
<path d="M223.879 228.909H217.636V222.667H223.879V228.909Z" fill="black"/>
<path d="M229.939 228.909H223.697V222.667H229.939V228.909Z" fill="black"/>
<path d="M236 228.909H229.757V222.667H236V228.909Z" fill="black"/>
<path d="M242.061 228.909H235.818V222.667H242.061V228.909Z" fill="black"/>
<path d="M72.3635 222.849H66.1211V216.606H72.3635V222.849Z" fill="black"/>
<path d="M84.4846 222.849H78.2422V216.606H84.4846V222.849Z" fill="black"/>
<path d="M96.6059 222.849H90.3635V216.606H96.6059V222.849Z" fill="black"/>
<path d="M120.848 222.849H114.606V216.606H120.848V222.849Z" fill="black"/>
<path d="M139.03 222.849H132.788V216.606H139.03V222.849Z" fill="black"/>
<path d="M163.273 222.849H157.03V216.606H163.273V222.849Z" fill="black"/>
<path d="M181.454 222.849H175.212V216.606H181.454V222.849Z" fill="black"/>
<path d="M193.576 222.849H187.333V216.606H193.576V222.849Z" fill="black"/>
<path d="M211.758 222.849H205.515V216.606H211.758V222.849Z" fill="black"/>
<path d="M217.818 222.849H211.576V216.606H217.818V222.849Z" fill="black"/>
<path d="M229.939 222.849H223.697V216.606H229.939V222.849Z" fill="black"/>
<path d="M236 222.849H229.757V216.606H236V222.849Z" fill="black"/>
<path d="M242.061 222.849H235.818V216.606H242.061V222.849Z" fill="black"/>
<path d="M72.3635 216.788H66.1211V210.545H72.3635V216.788Z" fill="black"/>
<path d="M90.5454 216.788H84.303V210.545H90.5454V216.788Z" fill="black"/>
<path d="M96.6059 216.788H90.3635V210.545H96.6059V216.788Z" fill="black"/>
<path d="M102.666 216.788H96.4241V210.545H102.666V216.788Z" fill="black"/>
<path d="M108.727 216.788H102.485V210.545H108.727V216.788Z" fill="black"/>
<path d="M120.848 216.788H114.606V210.545H120.848V216.788Z" fill="black"/>
<path d="M126.909 216.788H120.667V210.545H126.909V216.788Z" fill="black"/>
<path d="M151.151 216.788H144.909V210.545H151.151V216.788Z" fill="black"/>
<path d="M163.273 216.788H157.03V210.545H163.273V216.788Z" fill="black"/>
<path d="M181.454 216.788H175.212V210.545H181.454V216.788Z" fill="black"/>
<path d="M193.576 216.788H187.333V210.545H193.576V216.788Z" fill="black"/>
<path d="M205.697 216.788H199.454V210.545H205.697V216.788Z" fill="black"/>
<path d="M211.758 216.788H205.515V210.545H211.758V216.788Z" fill="black"/>
<path d="M223.879 216.788H217.636V210.545H223.879V216.788Z" fill="black"/>
<path d="M229.939 216.788H223.697V210.545H229.939V216.788Z" fill="black"/>
<path d="M72.3635 210.727H66.1211V204.485H72.3635V210.727Z" fill="black"/>
<path d="M84.4846 210.727H78.2422V204.485H84.4846V210.727Z" fill="black"/>
<path d="M90.5454 210.727H84.303V204.485H90.5454V210.727Z" fill="black"/>
<path d="M96.6059 210.727H90.3635V204.485H96.6059V210.727Z" fill="black"/>
<path d="M120.848 210.727H114.606V204.485H120.848V210.727Z" fill="black"/>
<path d="M132.969 210.727H126.727V204.485H132.969V210.727Z" fill="black"/>
<path d="M139.03 210.727H132.788V204.485H139.03V210.727Z" fill="black"/>
<path d="M151.151 210.727H144.909V204.485H151.151V210.727Z" fill="black"/>
<path d="M157.212 210.727H150.969V204.485H157.212V210.727Z" fill="black"/>
<path d="M163.273 210.727H157.03V204.485H163.273V210.727Z" fill="black"/>
<path d="M205.697 210.727H199.454V204.485H205.697V210.727Z" fill="black"/>
<path d="M217.818 210.727H211.576V204.485H217.818V210.727Z" fill="black"/>
<path d="M236 210.727H229.757V204.485H236V210.727Z" fill="black"/>
<path d="M242.061 210.727H235.818V204.485H242.061V210.727Z" fill="black"/>
<path d="M72.3635 204.667H66.1211V198.424H72.3635V204.667Z" fill="black"/>
<path d="M90.5454 204.667H84.303V198.424H90.5454V204.667Z" fill="black"/>
<path d="M102.666 204.667H96.4241V198.424H102.666V204.667Z" fill="black"/>
<path d="M108.727 204.667H102.485V198.424H108.727V204.667Z" fill="black"/>
<path d="M120.848 204.667H114.606V198.424H120.848V204.667Z" fill="black"/>
<path d="M145.091 204.667H138.848V198.424H145.091V204.667Z" fill="black"/>
<path d="M157.212 204.667H150.969V198.424H157.212V204.667Z" fill="black"/>
<path d="M169.333 204.667H163.091V198.424H169.333V204.667Z" fill="black"/>
<path d="M187.515 204.667H181.273V198.424H187.515V204.667Z" fill="black"/>
<path d="M193.576 204.667H187.333V198.424H193.576V204.667Z" fill="black"/>
<path d="M199.636 204.667H193.394V198.424H199.636V204.667Z" fill="black"/>
<path d="M205.697 204.667H199.454V198.424H205.697V204.667Z" fill="black"/>
<path d="M211.758 204.667H205.515V198.424H211.758V204.667Z" fill="black"/>
<path d="M217.818 204.667H211.576V198.424H217.818V204.667Z" fill="black"/>
<path d="M229.939 204.667H223.697V198.424H229.939V204.667Z" fill="black"/>
<path d="M120.848 198.606H114.606V192.364H120.848V198.606Z" fill="black"/>
<path d="M132.969 198.606H126.727V192.364H132.969V198.606Z" fill="black"/>
<path d="M139.03 198.606H132.788V192.364H139.03V198.606Z" fill="black"/>
<path d="M145.091 198.606H138.848V192.364H145.091V198.606Z" fill="black"/>
<path d="M157.212 198.606H150.969V192.364H157.212V198.606Z" fill="black"/>
<path d="M163.273 198.606H157.03V192.364H163.273V198.606Z" fill="black"/>
<path d="M175.394 198.606H169.151V192.364H175.394V198.606Z" fill="black"/>
<path d="M181.454 198.606H175.212V192.364H181.454V198.606Z" fill="black"/>
<path d="M187.515 198.606H181.273V192.364H187.515V198.606Z" fill="black"/>
<path d="M193.576 198.606H187.333V192.364H193.576V198.606Z" fill="black"/>
<path d="M217.818 198.606H211.576V192.364H217.818V198.606Z" fill="black"/>
<path d="M223.879 198.606H217.636V192.364H223.879V198.606Z" fill="black"/>
<path d="M236 198.606H229.757V192.364H236V198.606Z" fill="black"/>
<path d="M242.061 198.606H235.818V192.364H242.061V198.606Z" fill="black"/>
<path d="M139.03 192.545H132.788V186.303H139.03V192.545Z" fill="black"/>
<path d="M151.151 192.545H144.909V186.303H151.151V192.545Z" fill="black"/>
<path d="M157.212 192.545H150.969V186.303H157.212V192.545Z" fill="black"/>
<path d="M163.273 192.545H157.03V186.303H163.273V192.545Z" fill="black"/>
<path d="M175.394 192.545H169.151V186.303H175.394V192.545Z" fill="black"/>
<path d="M187.515 192.545H181.273V186.303H187.515V192.545Z" fill="black"/>
<path d="M193.576 192.545H187.333V186.303H193.576V192.545Z" fill="black"/>
<path d="M205.697 192.545H199.454V186.303H205.697V192.545Z" fill="black"/>
<path d="M217.818 192.545H211.576V186.303H217.818V192.545Z" fill="black"/>
<path d="M126.909 186.485H120.667V180.242H126.909V186.485Z" fill="black"/>
<path d="M157.212 186.485H150.969V180.242H157.212V186.485Z" fill="black"/>
<path d="M163.273 186.485H157.03V180.242H163.273V186.485Z" fill="black"/>
<path d="M175.394 186.485H169.151V180.242H175.394V186.485Z" fill="black"/>
<path d="M187.515 186.485H181.273V180.242H187.515V186.485Z" fill="black"/>
<path d="M193.576 186.485H187.333V180.242H193.576V186.485Z" fill="black"/>
<path d="M217.818 186.485H211.576V180.242H217.818V186.485Z" fill="black"/>
<path d="M223.879 186.485H217.636V180.242H223.879V186.485Z" fill="black"/>
<path d="M236 186.485H229.757V180.242H236V186.485Z" fill="black"/>
<path d="M120.848 180.424H114.606V174.182H120.848V180.424Z" fill="black"/>
<path d="M145.091 180.424H138.848V174.182H145.091V180.424Z" fill="black"/>
<path d="M151.151 180.424H144.909V174.182H151.151V180.424Z" fill="black"/>
<path d="M157.212 180.424H150.969V174.182H157.212V180.424Z" fill="black"/>
<path d="M163.273 180.424H157.03V174.182H163.273V180.424Z" fill="black"/>
<path d="M169.333 180.424H163.091V174.182H169.333V180.424Z" fill="black"/>
<path d="M193.576 180.424H187.333V174.182H193.576V180.424Z" fill="black"/>
<path d="M199.636 180.424H193.394V174.182H199.636V180.424Z" fill="black"/>
<path d="M205.697 180.424H199.454V174.182H205.697V180.424Z" fill="black"/>
<path d="M211.758 180.424H205.515V174.182H211.758V180.424Z" fill="black"/>
<path d="M217.818 180.424H211.576V174.182H217.818V180.424Z" fill="black"/>
<path d="M223.879 180.424H217.636V174.182H223.879V180.424Z" fill="black"/>
<path d="M229.939 180.424H223.697V174.182H229.939V180.424Z" fill="black"/>
<path d="M242.061 180.424H235.818V174.182H242.061V180.424Z" fill="black"/>
<path d="M120.848 174.364H114.606V168.121H120.848V174.364Z" fill="black"/>
<path d="M126.909 174.364H120.667V168.121H126.909V174.364Z" fill="black"/>
<path d="M132.969 174.364H126.727V168.121H132.969V174.364Z" fill="black"/>
<path d="M139.03 174.364H132.788V168.121H139.03V174.364Z" fill="black"/>
<path d="M163.273 174.364H157.03V168.121H163.273V174.364Z" fill="black"/>
<path d="M169.333 174.364H163.091V168.121H169.333V174.364Z" fill="black"/>
<path d="M187.515 174.364H181.273V168.121H187.515V174.364Z" fill="black"/>
<path d="M193.576 174.364H187.333V168.121H193.576V174.364Z" fill="black"/>
<path d="M199.636 174.364H193.394V168.121H199.636V174.364Z" fill="black"/>
<path d="M211.758 174.364H205.515V168.121H211.758V174.364Z" fill="black"/>
<path d="M223.879 174.364H217.636V168.121H223.879V174.364Z" fill="black"/>
<path d="M229.939 174.364H223.697V168.121H229.939V174.364Z" fill="black"/>
<path d="M120.848 168.303H114.606V162.061H120.848V168.303Z" fill="black"/>
<path d="M126.909 168.303H120.667V162.061H126.909V168.303Z" fill="black"/>
<path d="M139.03 168.303H132.788V162.061H139.03V168.303Z" fill="black"/>
<path d="M145.091 168.303H138.848V162.061H145.091V168.303Z" fill="black"/>
<path d="M157.212 168.303H150.969V162.061H157.212V168.303Z" fill="black"/>
<path d="M181.454 168.303H175.212V162.061H181.454V168.303Z" fill="black"/>
<path d="M187.515 168.303H181.273V162.061H187.515V168.303Z" fill="black"/>
<path d="M193.576 168.303H187.333V162.061H193.576V168.303Z" fill="black"/>
<path d="M199.636 168.303H193.394V162.061H199.636V168.303Z" fill="black"/>
<path d="M205.697 168.303H199.454V162.061H205.697V168.303Z" fill="black"/>
<path d="M211.758 168.303H205.515V162.061H211.758V168.303Z" fill="black"/>
<path d="M217.818 168.303H211.576V162.061H217.818V168.303Z" fill="black"/>
<path d="M223.879 168.303H217.636V162.061H223.879V168.303Z" fill="black"/>
<path d="M229.939 168.303H223.697V162.061H229.939V168.303Z" fill="black"/>
<path d="M236 168.303H229.757V162.061H236V168.303Z" fill="black"/>
<path d="M132.969 162.242H126.727V156H132.969V162.242Z" fill="black"/>
<path d="M139.03 162.242H132.788V156H139.03V162.242Z" fill="black"/>
<path d="M151.151 162.242H144.909V156H151.151V162.242Z" fill="black"/>
<path d="M157.212 162.242H150.969V156H157.212V162.242Z" fill="black"/>
<path d="M163.273 162.242H157.03V156H163.273V162.242Z" fill="black"/>
<path d="M187.515 162.242H181.273V156H187.515V162.242Z" fill="black"/>
<path d="M199.636 162.242H193.394V156H199.636V162.242Z" fill="black"/>
<path d="M205.697 162.242H199.454V156H205.697V162.242Z" fill="black"/>
<path d="M217.818 162.242H211.576V156H217.818V162.242Z" fill="black"/>
<path d="M223.879 162.242H217.636V156H223.879V162.242Z" fill="black"/>
<path d="M236 162.242H229.757V156H236V162.242Z" fill="black"/>
<path d="M132.969 156.182H126.727V149.939H132.969V156.182Z" fill="black"/>
<path d="M139.03 156.182H132.788V149.939H139.03V156.182Z" fill="black"/>
<path d="M169.333 156.182H163.091V149.939H169.333V156.182Z" fill="black"/>
<path d="M175.394 156.182H169.151V149.939H175.394V156.182Z" fill="black"/>
<path d="M187.515 156.182H181.273V149.939H187.515V156.182Z" fill="black"/>
<path d="M199.636 156.182H193.394V149.939H199.636V156.182Z" fill="black"/>
<path d="M217.818 156.182H211.576V149.939H217.818V156.182Z" fill="black"/>
<path d="M66.1211 325.879V283.455H108.545V325.879H66.1211ZM102.485 289.515H72.1817V319.818H102.485V289.515Z" fill="black"/>
<path d="M199.454 325.879V283.455H241.879V325.879H199.454ZM235.818 289.515H205.515V319.818H235.818V289.515Z" fill="black"/>
<path d="M66.1211 192.545V150.121H108.545V192.545H66.1211ZM102.485 156.182H72.1817V186.485H102.485V156.182Z" fill="black"/>
<path d="M96.424 313.758H78.2422V295.576H96.424V313.758Z" fill="black"/>
<path d="M229.758 313.758H211.576V295.576H229.758V313.758Z" fill="black"/>
<path d="M96.424 180.424H78.2422V162.242H96.424V180.424Z" fill="black"/>
</g>
<path d="M62.3086 399L56.9806 416.52H61.0366L65.2606 401.736L64.3486 402.192H66.7966L65.8366 401.736L69.7486 416.52H73.6846L68.7166 399H62.3086ZM76.2198 399V412.152H80.0598V399H76.2198ZM74.4678 409.32V412.152H80.0598V409.32H74.4678ZM77.7078 413.448C76.9878 413.448 76.4518 413.632 76.0998 414C75.7638 414.384 75.5958 414.864 75.5958 415.44C75.5958 416.032 75.7638 416.512 76.0998 416.88C76.4518 417.264 76.9878 417.456 77.7078 417.456C78.4278 417.456 78.9558 417.264 79.2918 416.88C79.6438 416.512 79.8198 416.032 79.8198 415.44C79.8198 414.864 79.6438 414.384 79.2918 414C78.9558 413.632 78.4278 413.448 77.7078 413.448ZM89.5154 398.544C88.3794 398.544 87.3874 398.728 86.5394 399.096C85.7074 399.48 85.0114 399.992 84.4514 400.632C83.8914 401.272 83.4754 401.992 83.2034 402.792C82.9314 403.608 82.7954 404.448 82.7954 405.312V405.768C82.7954 406.664 82.9394 407.52 83.2274 408.336C83.5154 409.168 83.9394 409.904 84.4994 410.544C85.0594 411.184 85.7554 411.688 86.5874 412.056C87.4354 412.424 88.4034 412.608 89.4914 412.608C90.6754 412.608 91.7234 412.376 92.6354 411.912C93.5474 411.464 94.2754 410.832 94.8194 410.016C95.3634 409.2 95.6674 408.264 95.7314 407.208H91.9634C91.8994 407.8 91.6594 408.296 91.2434 408.696C90.8434 409.112 90.2594 409.32 89.4914 409.32C88.8514 409.32 88.3154 409.16 87.8834 408.84C87.4674 408.52 87.1554 408.08 86.9474 407.52C86.7394 406.96 86.6354 406.296 86.6354 405.528C86.6354 404.824 86.7314 404.184 86.9234 403.608C87.1154 403.048 87.4194 402.608 87.8354 402.288C88.2674 401.984 88.8274 401.832 89.5154 401.832C90.0274 401.832 90.4594 401.92 90.8114 402.096C91.1794 402.288 91.4674 402.544 91.6754 402.864C91.8994 403.2 92.0354 403.584 92.0834 404.016H95.8274C95.7794 402.928 95.4754 401.968 94.9154 401.136C94.3554 400.32 93.6114 399.68 92.6834 399.216C91.7554 398.768 90.6994 398.544 89.5154 398.544ZM104.259 398.832C102.931 398.832 101.859 398.992 101.043 399.312C100.227 399.648 99.6273 400.2 99.2433 400.968C98.8753 401.752 98.6913 402.808 98.6913 404.136V415.704H102.267V403.992C102.267 403.368 102.427 402.888 102.747 402.552C103.083 402.232 103.555 402.072 104.163 402.072H106.107V398.832H104.259ZM96.6993 409.344V412.152H106.107V409.344H96.6993ZM115.051 398.544C113.899 398.544 112.875 398.72 111.979 399.072C111.083 399.44 110.323 399.936 109.699 400.56C109.091 401.184 108.627 401.896 108.307 402.696C107.987 403.512 107.827 404.368 107.827 405.264V405.816C107.827 406.728 107.987 407.592 108.307 408.408C108.643 409.24 109.123 409.968 109.747 410.592C110.387 411.216 111.155 411.704 112.051 412.056C112.947 412.424 113.947 412.608 115.051 412.608C116.187 412.608 117.195 412.424 118.075 412.056C118.971 411.704 119.731 411.216 120.355 410.592C120.979 409.968 121.459 409.24 121.795 408.408C122.131 407.592 122.299 406.728 122.299 405.816V405.264C122.299 404.368 122.139 403.512 121.819 402.696C121.499 401.896 121.027 401.184 120.403 400.56C119.795 399.936 119.043 399.44 118.147 399.072C117.251 398.72 116.219 398.544 115.051 398.544ZM115.051 401.784C115.803 401.784 116.427 401.944 116.923 402.264C117.419 402.584 117.795 403.032 118.051 403.608C118.323 404.184 118.459 404.824 118.459 405.528C118.459 406.28 118.323 406.936 118.051 407.496C117.779 408.072 117.387 408.528 116.875 408.864C116.379 409.2 115.771 409.368 115.051 409.368C114.347 409.368 113.739 409.2 113.227 408.864C112.715 408.528 112.323 408.072 112.051 407.496C111.795 406.936 111.667 406.28 111.667 405.528C111.667 404.824 111.795 404.184 112.051 403.608C112.307 403.032 112.691 402.584 113.203 402.264C113.715 401.944 114.331 401.784 115.051 401.784ZM124.979 399V412.152H128.027V406.512H127.955C127.955 408.368 128.347 409.8 129.131 410.808C129.931 411.816 131.083 412.32 132.587 412.32H133.091V409.008H132.131C131.075 409.008 130.259 408.72 129.683 408.144C129.107 407.584 128.819 406.768 128.819 405.696V399H124.979ZM143.695 398.88V401.952H147.799C148.535 401.952 149.087 402.144 149.455 402.528C149.823 402.912 150.007 403.456 150.007 404.16C150.007 404.864 149.823 405.4 149.455 405.768C149.087 406.152 148.535 406.344 147.799 406.344H143.695V408.72H147.607C148.823 408.72 149.903 408.568 150.847 408.264C151.791 407.976 152.535 407.504 153.079 406.848C153.623 406.192 153.895 405.304 153.895 404.184V403.848C153.895 402.808 153.655 401.912 153.175 401.16C152.695 400.424 151.991 399.856 151.063 399.456C150.135 399.072 148.983 398.88 147.607 398.88H143.695ZM140.335 398.88V416.664H144.175V398.88H140.335ZM143.695 406.968V409.32H147.151C147.903 409.32 148.447 409.512 148.783 409.896C149.119 410.28 149.287 410.792 149.287 411.432C149.287 412.104 149.119 412.632 148.783 413.016C148.447 413.4 147.903 413.592 147.151 413.592H143.695V416.664H146.911C148.927 416.664 150.471 416.24 151.543 415.392C152.631 414.544 153.175 413.336 153.175 411.768V411.408C153.175 410.32 152.895 409.448 152.335 408.792C151.791 408.136 151.047 407.664 150.103 407.376C149.175 407.104 148.111 406.968 146.911 406.968H143.695ZM156.736 399V412.152H159.784V406.512H159.712C159.712 408.368 160.104 409.8 160.888 410.808C161.688 411.816 162.84 412.32 164.344 412.32H164.848V409.008H163.888C162.832 409.008 162.016 408.72 161.44 408.144C160.864 407.584 160.576 406.768 160.576 405.696V399H156.736ZM174.688 399V402.888H174.04V407.112C174.04 407.784 173.88 408.288 173.56 408.624C173.24 408.96 172.728 409.128 172.024 409.128C171.672 409.128 171.208 409.12 170.632 409.104C170.056 409.088 169.464 409.064 168.856 409.032C168.248 409 167.696 408.968 167.2 408.936V412.176C167.568 412.208 168 412.24 168.496 412.272C168.992 412.304 169.504 412.328 170.032 412.344C170.56 412.36 171.056 412.368 171.52 412.368C172.864 412.368 173.992 412.176 174.904 411.792C175.832 411.408 176.536 410.824 177.016 410.04C177.496 409.272 177.736 408.28 177.736 407.064V399H174.688ZM170.488 398.664C169.544 398.664 168.712 398.832 167.992 399.168C167.288 399.504 166.736 399.984 166.336 400.608C165.936 401.248 165.736 402.008 165.736 402.888C165.736 403.848 165.984 404.632 166.48 405.24C166.976 405.864 167.672 406.32 168.568 406.608C169.464 406.912 170.496 407.064 171.664 407.064H174.472V404.928H171.64C170.968 404.928 170.448 404.76 170.08 404.424C169.728 404.104 169.552 403.664 169.552 403.104C169.552 402.576 169.728 402.144 170.08 401.808C170.448 401.488 170.968 401.328 171.64 401.328C172.072 401.328 172.456 401.4 172.792 401.544C173.144 401.704 173.432 401.968 173.656 402.336C173.88 402.704 174.008 403.216 174.04 403.872L174.952 402.912C174.872 402 174.648 401.232 174.28 400.608C173.928 399.984 173.432 399.504 172.792 399.168C172.168 398.832 171.4 398.664 170.488 398.664ZM185.986 398.592C184.114 398.592 182.65 398.976 181.594 399.744C180.538 400.512 179.978 401.592 179.914 402.984H183.322C183.386 402.568 183.634 402.192 184.066 401.856C184.514 401.536 185.178 401.376 186.058 401.376C186.73 401.376 187.282 401.488 187.714 401.712C188.162 401.952 188.386 402.288 188.386 402.72C188.386 403.104 188.218 403.408 187.882 403.632C187.546 403.872 186.946 404.04 186.082 404.136L185.05 404.232C183.466 404.392 182.274 404.832 181.474 405.552C180.69 406.272 180.298 407.192 180.298 408.312C180.298 409.24 180.53 410.016 180.994 410.64C181.458 411.264 182.098 411.736 182.914 412.056C183.746 412.376 184.69 412.536 185.746 412.536C187.442 412.536 188.81 412.16 189.85 411.408C190.89 410.672 191.434 409.6 191.482 408.192H188.074C188.01 408.624 187.786 408.984 187.402 409.272C187.018 409.576 186.45 409.728 185.698 409.728C185.106 409.728 184.634 409.616 184.282 409.392C183.93 409.168 183.754 408.864 183.754 408.48C183.754 408.112 183.906 407.832 184.21 407.64C184.514 407.448 185.01 407.312 185.698 407.232L186.73 407.136C188.346 406.96 189.602 406.512 190.498 405.792C191.394 405.072 191.842 404.104 191.842 402.888C191.842 402.008 191.602 401.24 191.122 400.584C190.642 399.944 189.962 399.448 189.082 399.096C188.202 398.76 187.17 398.592 185.986 398.592ZM194.954 399V412.152H198.794V399H194.954ZM193.202 409.32V412.152H198.794V409.32H193.202ZM196.442 413.448C195.722 413.448 195.186 413.632 194.834 414C194.498 414.384 194.33 414.864 194.33 415.44C194.33 416.032 194.498 416.512 194.834 416.88C195.186 417.264 195.722 417.456 196.442 417.456C197.162 417.456 197.69 417.264 198.026 416.88C198.378 416.512 198.554 416.032 198.554 415.44C198.554 414.864 198.378 414.384 198.026 414C197.69 413.632 197.162 413.448 196.442 413.448ZM202.514 399V416.52H206.378V399H202.514ZM200.954 413.688V416.52H206.378V413.688H200.954ZM215.94 398.544C214.82 398.544 213.828 398.736 212.964 399.12C212.116 399.504 211.404 400.016 210.828 400.656C210.268 401.312 209.836 402.04 209.532 402.84C209.244 403.656 209.1 404.488 209.1 405.336V405.816C209.1 406.696 209.244 407.536 209.532 408.336C209.836 409.152 210.268 409.88 210.828 410.52C211.388 411.16 212.084 411.664 212.916 412.032C213.764 412.416 214.724 412.608 215.796 412.608C217.204 412.608 218.388 412.288 219.348 411.648C220.324 411.024 221.068 410.2 221.58 409.176C222.092 408.168 222.348 407.064 222.348 405.864V404.568H210.708V406.752H220.02L218.772 405.744C218.772 406.528 218.66 407.2 218.436 407.76C218.212 408.32 217.876 408.744 217.428 409.032C216.996 409.336 216.452 409.488 215.796 409.488C215.124 409.488 214.556 409.336 214.092 409.032C213.628 408.728 213.276 408.28 213.036 407.688C212.796 407.112 212.676 406.4 212.676 405.552C212.676 404.768 212.788 404.08 213.012 403.488C213.236 402.912 213.588 402.464 214.068 402.144C214.548 401.824 215.172 401.664 215.94 401.664C216.644 401.664 217.22 401.8 217.668 402.072C218.116 402.344 218.42 402.68 218.58 403.08H222.108C221.916 402.2 221.54 401.416 220.98 400.728C220.42 400.04 219.716 399.504 218.868 399.12C218.02 398.736 217.044 398.544 215.94 398.544ZM225.517 399V412.152H229.357V399H225.517ZM223.765 409.32V412.152H229.357V409.32H223.765ZM227.005 413.448C226.285 413.448 225.749 413.632 225.397 414C225.061 414.384 224.893 414.864 224.893 415.44C224.893 416.032 225.061 416.512 225.397 416.88C225.749 417.264 226.285 417.456 227.005 417.456C227.725 417.456 228.253 417.264 228.589 416.88C228.941 416.512 229.117 416.032 229.117 415.44C229.117 414.864 228.941 414.384 228.589 414C228.253 413.632 227.725 413.448 227.005 413.448ZM232.908 399V412.152H235.956V406.512H235.884C235.884 408.368 236.276 409.8 237.06 410.808C237.86 411.816 239.012 412.32 240.516 412.32H241.02V409.008H240.06C239.004 409.008 238.188 408.72 237.612 408.144C237.036 407.584 236.748 406.768 236.748 405.696V399H232.908ZM249.348 398.544C248.196 398.544 247.172 398.72 246.276 399.072C245.38 399.44 244.62 399.936 243.996 400.56C243.388 401.184 242.924 401.896 242.604 402.696C242.284 403.512 242.124 404.368 242.124 405.264V405.816C242.124 406.728 242.284 407.592 242.604 408.408C242.94 409.24 243.42 409.968 244.044 410.592C244.684 411.216 245.452 411.704 246.348 412.056C247.244 412.424 248.244 412.608 249.348 412.608C250.484 412.608 251.492 412.424 252.372 412.056C253.268 411.704 254.028 411.216 254.652 410.592C255.276 409.968 255.756 409.24 256.092 408.408C256.428 407.592 256.596 406.728 256.596 405.816V405.264C256.596 404.368 256.436 403.512 256.116 402.696C255.796 401.896 255.324 401.184 254.7 400.56C254.092 399.936 253.34 399.44 252.444 399.072C251.548 398.72 250.516 398.544 249.348 398.544ZM249.348 401.784C250.1 401.784 250.724 401.944 251.22 402.264C251.716 402.584 252.092 403.032 252.348 403.608C252.62 404.184 252.756 404.824 252.756 405.528C252.756 406.28 252.62 406.936 252.348 407.496C252.076 408.072 251.684 408.528 251.172 408.864C250.676 409.2 250.068 409.368 249.348 409.368C248.644 409.368 248.036 409.2 247.523 408.864C247.012 408.528 246.62 408.072 246.348 407.496C246.092 406.936 245.964 406.28 245.964 405.528C245.964 404.824 246.092 404.184 246.348 403.608C246.604 403.032 246.988 402.584 247.5 402.264C248.012 401.944 248.628 401.784 249.348 401.784Z" fill="white"/>
<path d="M60.0543 388L60.1509 388.545C60.1793 388.706 60.2371 388.876 60.3242 389.054C60.4132 389.232 60.525 389.402 60.6594 389.565C60.7958 389.728 60.9473 389.867 61.114 389.983L61.4776 389.682C61.3394 389.513 61.2134 389.337 61.0998 389.153C60.9862 388.97 60.9123 388.77 60.8782 388.554L60.7816 388H60.0543ZM61.5032 388L61.5998 388.545C61.6282 388.706 61.686 388.876 61.7731 389.054C61.8621 389.232 61.9738 389.402 62.1083 389.565C62.2447 389.728 62.3962 389.867 62.5629 389.983L62.9265 389.682C62.7882 389.513 62.6623 389.337 62.5487 389.153C62.435 388.97 62.3612 388.77 62.3271 388.554L62.2305 388H61.5032ZM68.4492 389.818L67.4833 384H66.6765L64.4293 388.267H64.3782L63.6651 384H62.7873L63.7532 389.818H64.5657L66.8157 385.545H66.8697L67.5799 389.818H68.4492ZM70.5536 383.912C70.1388 383.912 69.7923 384.007 69.5138 384.196C69.2354 384.387 69.0394 384.654 68.9258 384.997C68.814 385.342 68.7951 385.742 68.869 386.199C68.9409 386.646 69.0858 387.036 69.3036 387.369C69.5233 387.703 69.7979 387.961 70.1275 388.145C70.4589 388.329 70.8273 388.42 71.2326 388.42C71.6474 388.42 71.993 388.325 72.2695 388.134C72.5479 387.942 72.744 387.674 72.8576 387.33C72.9712 386.985 72.9911 386.583 72.9173 386.125C72.8453 385.682 72.6985 385.294 72.4769 384.96C72.2572 384.629 71.9826 384.371 71.6531 384.188C71.3235 384.004 70.957 383.912 70.5536 383.912ZM70.6019 384.625C70.8746 384.625 71.1123 384.697 71.315 384.841C71.5195 384.985 71.6862 385.176 71.815 385.415C71.9438 385.653 72.0318 385.915 72.0792 386.199C72.1228 386.473 72.1218 386.724 72.0763 386.952C72.0328 387.181 71.9381 387.365 71.7923 387.503C71.6464 387.641 71.4438 387.71 71.1843 387.71C70.9116 387.71 70.672 387.637 70.4656 387.491C70.261 387.348 70.0943 387.155 69.9656 386.915C69.8387 386.674 69.7525 386.412 69.707 386.128C69.6635 385.855 69.6635 385.604 69.707 385.375C69.7506 385.148 69.8453 384.966 69.9911 384.83C70.137 384.693 70.3406 384.625 70.6019 384.625ZM77.337 387.298L76.5444 387.162C76.5273 387.262 76.4923 387.357 76.4393 387.446C76.3881 387.535 76.3095 387.607 76.2035 387.662C76.0974 387.719 75.9563 387.747 75.7802 387.747C75.5359 387.747 75.3219 387.691 75.1381 387.58C74.9563 387.468 74.8522 387.326 74.8256 387.153C74.801 387.013 74.8342 386.9 74.9251 386.812C75.016 386.727 75.176 386.656 75.4052 386.599L76.0756 386.44C76.462 386.348 76.7385 386.203 76.9052 386.006C77.0737 385.811 77.1325 385.557 77.0813 385.244C77.0378 384.985 76.9241 384.755 76.7404 384.554C76.5586 384.353 76.3256 384.196 76.0415 384.082C75.7575 383.969 75.4412 383.912 75.0927 383.912C74.5965 383.912 74.2101 384.017 73.9336 384.227C73.6571 384.437 73.515 384.735 73.5075 385.119L74.3484 385.244C74.3635 385.03 74.4402 384.868 74.5785 384.759C74.7186 384.651 74.9128 384.597 75.1609 384.597C75.445 384.595 75.6826 384.654 75.8739 384.776C76.0652 384.897 76.1741 385.044 76.2006 385.216C76.2234 385.35 76.1931 385.462 76.1097 385.551C76.0283 385.64 75.8844 385.708 75.6779 385.756L74.9734 385.918C74.5794 386.01 74.301 386.16 74.1381 386.366C73.9753 386.573 73.9203 386.832 73.9734 387.145C74.015 387.401 74.123 387.623 74.2972 387.812C74.4734 388.004 74.6959 388.152 74.9648 388.259C75.2338 388.366 75.5311 388.42 75.8569 388.42C76.3323 388.42 76.6893 388.318 76.9279 388.114C77.1665 387.911 77.3029 387.639 77.337 387.298ZM81.6261 387.298L80.8335 387.162C80.8164 387.262 80.7814 387.357 80.7283 387.446C80.6772 387.535 80.5986 387.607 80.4925 387.662C80.3865 387.719 80.2454 387.747 80.0692 387.747C79.8249 387.747 79.6109 387.691 79.4272 387.58C79.2454 387.468 79.1412 387.326 79.1147 387.153C79.0901 387.013 79.1232 386.9 79.2141 386.812C79.305 386.727 79.4651 386.656 79.6942 386.599L80.3647 386.44C80.7511 386.348 81.0276 386.203 81.1942 386.006C81.3628 385.811 81.4215 385.557 81.3704 385.244C81.3268 384.985 81.2132 384.755 81.0295 384.554C80.8477 384.353 80.6147 384.196 80.3306 384.082C80.0465 383.969 79.7302 383.912 79.3817 383.912C78.8855 383.912 78.4992 384.017 78.2227 384.227C77.9461 384.437 77.8041 384.735 77.7965 385.119L78.6374 385.244C78.6526 385.03 78.7293 384.868 78.8675 384.759C79.0077 384.651 79.2018 384.597 79.4499 384.597C79.734 384.595 79.9717 384.654 80.163 384.776C80.3543 384.897 80.4632 385.044 80.4897 385.216C80.5124 385.35 80.4821 385.462 80.3988 385.551C80.3174 385.64 80.1734 385.708 79.967 385.756L79.2624 385.918C78.8685 386.01 78.5901 386.16 78.4272 386.366C78.2643 386.573 78.2094 386.832 78.2624 387.145C78.3041 387.401 78.4121 387.623 78.5863 387.812C78.7624 388.004 78.985 388.152 79.2539 388.259C79.5228 388.366 79.8202 388.42 80.146 388.42C80.6213 388.42 80.9783 388.318 81.217 388.114C81.4556 387.911 81.592 387.639 81.6261 387.298ZM83.3526 383.903C83.0761 383.903 82.8346 383.955 82.6282 384.057C82.4218 384.161 82.2693 384.312 82.1708 384.509C82.0723 384.705 82.0468 384.947 82.0941 385.233C82.1358 385.479 82.2172 385.682 82.3384 385.841C82.4615 386 82.6112 386.126 82.7873 386.219C82.9634 386.313 83.1547 386.384 83.3612 386.432C83.5676 386.479 83.7759 386.514 83.9862 386.537C84.2513 386.567 84.4663 386.593 84.631 386.614C84.7977 386.634 84.9227 386.667 85.006 386.71C85.0894 386.756 85.1396 386.83 85.1566 386.932V386.952C85.1964 387.198 85.1604 387.389 85.0487 387.526C84.9388 387.664 84.7475 387.733 84.4748 387.733C84.1907 387.733 83.9521 387.67 83.7589 387.545C83.5676 387.42 83.4265 387.28 83.3356 387.125L82.5742 387.307C82.7106 387.572 82.8839 387.786 83.0941 387.949C83.3062 388.114 83.5382 388.233 83.7901 388.307C84.042 388.383 84.2996 388.42 84.5629 388.42C84.7371 388.42 84.918 388.4 85.1055 388.358C85.293 388.318 85.4634 388.244 85.6168 388.136C85.7721 388.028 85.8877 387.874 85.9634 387.673C86.0392 387.474 86.0505 387.216 85.9975 386.898L85.5174 384H84.6879L84.7901 384.597H84.756C84.6841 384.487 84.5837 384.379 84.4549 384.273C84.328 384.167 84.1727 384.079 83.989 384.009C83.8053 383.938 83.5932 383.903 83.3526 383.903ZM83.6424 384.585C83.8791 384.585 84.0884 384.632 84.2702 384.724C84.454 384.817 84.6026 384.938 84.7163 385.088C84.8299 385.24 84.9009 385.402 84.9293 385.574L85.0231 386.136C84.9871 386.106 84.9237 386.079 84.8327 386.054C84.7437 386.029 84.6433 386.008 84.5316 385.989C84.4199 385.97 84.31 385.954 84.2021 385.94C84.096 385.927 84.0079 385.915 83.9379 385.903C83.7712 385.883 83.6149 385.848 83.4691 385.798C83.3252 385.749 83.2049 385.678 83.1083 385.585C83.0117 385.494 82.9511 385.373 82.9265 385.222C82.8924 385.011 82.9426 384.852 83.0771 384.744C83.2134 384.638 83.4019 384.585 83.6424 384.585ZM90.4698 387.298L89.6772 387.162C89.6602 387.262 89.6251 387.357 89.5721 387.446C89.521 387.535 89.4424 387.607 89.3363 387.662C89.2302 387.719 89.0891 387.747 88.913 387.747C88.6687 387.747 88.4547 387.691 88.271 387.58C88.0891 387.468 87.985 387.326 87.9585 387.153C87.9338 387.013 87.967 386.9 88.0579 386.812C88.1488 386.727 88.3088 386.656 88.538 386.599L89.2085 386.44C89.5948 386.348 89.8713 386.203 90.038 386.006C90.2066 385.811 90.2653 385.557 90.2141 385.244C90.1706 384.985 90.0569 384.755 89.8732 384.554C89.6914 384.353 89.4585 384.196 89.1744 384.082C88.8903 383.969 88.574 383.912 88.2255 383.912C87.7293 383.912 87.3429 384.017 87.0664 384.227C86.7899 384.437 86.6478 384.735 86.6403 385.119L87.4812 385.244C87.4963 385.03 87.573 384.868 87.7113 384.759C87.8514 384.651 88.0456 384.597 88.2937 384.597C88.5778 384.595 88.8155 384.654 89.0067 384.776C89.198 384.897 89.3069 385.044 89.3335 385.216C89.3562 385.35 89.3259 385.462 89.2425 385.551C89.1611 385.64 89.0172 385.708 88.8107 385.756L88.1062 385.918C87.7122 386.01 87.4338 386.16 87.271 386.366C87.1081 386.573 87.0531 386.832 87.1062 387.145C87.1478 387.401 87.2558 387.623 87.43 387.812C87.6062 388.004 87.8287 388.152 88.0977 388.259C88.3666 388.366 88.6639 388.42 88.9897 388.42C89.4651 388.42 89.8221 388.318 90.0607 388.114C90.2994 387.911 90.4357 387.639 90.4698 387.298ZM94.5977 389.818L95.4357 385.08H95.5011L97.9016 389.818H98.8505L95.7908 384H94.7766L93.6488 389.818H94.5977ZM98.6566 384L99.3839 388.364H100.233L99.506 384H98.6566ZM99.9862 389.045C99.8384 389.045 99.7134 389.095 99.6112 389.193C99.5108 389.294 99.4644 389.413 99.4719 389.551C99.4795 389.691 99.5382 389.811 99.6481 389.909C99.7579 390.009 99.8858 390.06 100.032 390.06C100.179 390.06 100.303 390.009 100.404 389.909C100.504 389.811 100.551 389.691 100.546 389.551C100.538 389.413 100.48 389.294 100.37 389.193C100.262 389.095 100.134 389.045 99.9862 389.045ZM102.277 383.915C101.922 383.915 101.622 384.005 101.376 384.185C101.132 384.366 100.958 384.625 100.856 384.96C100.756 385.297 100.744 385.702 100.822 386.173C100.902 386.645 101.048 387.048 101.262 387.384C101.476 387.719 101.736 387.975 102.041 388.153C102.346 388.331 102.674 388.42 103.027 388.42C103.297 388.42 103.508 388.375 103.657 388.284C103.809 388.195 103.921 388.091 103.993 387.972C104.065 387.852 104.118 387.747 104.154 387.656H104.203L104.564 389.818H105.413L104.447 384H103.618L103.734 384.679H103.663C103.597 384.586 103.505 384.48 103.387 384.361C103.272 384.241 103.124 384.137 102.944 384.048C102.764 383.959 102.542 383.915 102.277 383.915ZM102.564 384.639C102.808 384.639 103.027 384.704 103.22 384.832C103.415 384.963 103.577 385.144 103.706 385.375C103.836 385.606 103.927 385.875 103.978 386.182C104.029 386.485 104.029 386.75 103.975 386.977C103.922 387.205 103.82 387.382 103.669 387.509C103.517 387.635 103.317 387.699 103.069 387.699C102.814 387.699 102.591 387.633 102.402 387.5C102.212 387.367 102.057 387.187 101.936 386.957C101.816 386.728 101.733 386.47 101.686 386.182C101.636 385.89 101.635 385.628 101.68 385.395C101.725 385.162 101.821 384.977 101.967 384.841C102.113 384.706 102.312 384.639 102.564 384.639ZM106.915 383.903C106.639 383.903 106.397 383.955 106.191 384.057C105.984 384.161 105.832 384.312 105.733 384.509C105.635 384.705 105.609 384.947 105.657 385.233C105.698 385.479 105.78 385.682 105.901 385.841C106.024 386 106.174 386.126 106.35 386.219C106.526 386.313 106.717 386.384 106.924 386.432C107.13 386.479 107.338 386.514 107.549 386.537C107.814 386.567 108.029 386.593 108.194 386.614C108.36 386.634 108.485 386.667 108.569 386.71C108.652 386.756 108.702 386.83 108.719 386.932V386.952C108.759 387.198 108.723 387.389 108.611 387.526C108.501 387.664 108.31 387.733 108.037 387.733C107.753 387.733 107.515 387.67 107.321 387.545C107.13 387.42 106.989 387.28 106.898 387.125L106.137 387.307C106.273 387.572 106.446 387.786 106.657 387.949C106.869 388.114 107.101 388.233 107.353 388.307C107.605 388.383 107.862 388.42 108.125 388.42C108.3 388.42 108.48 388.4 108.668 388.358C108.855 388.318 109.026 388.244 109.179 388.136C109.335 388.028 109.45 387.874 109.526 387.673C109.602 387.474 109.613 387.216 109.56 386.898L109.08 384H108.25L108.353 384.597H108.319C108.247 384.487 108.146 384.379 108.017 384.273C107.891 384.167 107.735 384.079 107.551 384.009C107.368 383.938 107.156 383.903 106.915 383.903ZM107.205 384.585C107.442 384.585 107.651 384.632 107.833 384.724C108.016 384.817 108.165 384.938 108.279 385.088C108.392 385.24 108.463 385.402 108.492 385.574L108.586 386.136C108.55 386.106 108.486 386.079 108.395 386.054C108.306 386.029 108.206 386.008 108.094 385.989C107.982 385.97 107.873 385.954 107.765 385.94C107.658 385.927 107.57 385.915 107.5 385.903C107.334 385.883 107.177 385.848 107.032 385.798C106.888 385.749 106.767 385.678 106.671 385.585C106.574 385.494 106.514 385.373 106.489 385.222C106.455 385.011 106.505 384.852 106.64 384.744C106.776 384.638 106.964 384.585 107.205 384.585ZM114.032 387.298L113.24 387.162C113.223 387.262 113.188 387.357 113.135 387.446C113.083 387.535 113.005 387.607 112.899 387.662C112.793 387.719 112.652 387.747 112.475 387.747C112.231 387.747 112.017 387.691 111.833 387.58C111.652 387.468 111.547 387.326 111.521 387.153C111.496 387.013 111.529 386.9 111.62 386.812C111.711 386.727 111.871 386.656 112.1 386.599L112.771 386.44C113.157 386.348 113.434 386.203 113.6 386.006C113.769 385.811 113.828 385.557 113.777 385.244C113.733 384.985 113.619 384.755 113.436 384.554C113.254 384.353 113.021 384.196 112.737 384.082C112.453 383.969 112.136 383.912 111.788 383.912C111.292 383.912 110.905 384.017 110.629 384.227C110.352 384.437 110.21 384.735 110.203 385.119L111.044 385.244C111.059 385.03 111.136 384.868 111.274 384.759C111.414 384.651 111.608 384.597 111.856 384.597C112.14 384.595 112.378 384.654 112.569 384.776C112.761 384.897 112.869 385.044 112.896 385.216C112.919 385.35 112.888 385.462 112.805 385.551C112.724 385.64 112.58 385.708 112.373 385.756L111.669 385.918C111.275 386.01 110.996 386.16 110.833 386.366C110.671 386.573 110.616 386.832 110.669 387.145C110.71 387.401 110.818 387.623 110.993 387.812C111.169 388.004 111.391 388.152 111.66 388.259C111.929 388.366 112.226 388.42 112.552 388.42C113.028 388.42 113.385 388.318 113.623 388.114C113.862 387.911 113.998 387.639 114.032 387.298ZM122.348 389.818L121.382 384H120.575L118.328 388.267H118.277L117.564 384H116.686L117.652 389.818H118.464L120.714 385.545H120.768L121.478 389.818H122.348ZM124.452 383.912C124.037 383.912 123.691 384.007 123.412 384.196C123.134 384.387 122.938 384.654 122.824 384.997C122.712 385.342 122.694 385.742 122.767 386.199C122.839 386.646 122.984 387.036 123.202 387.369C123.422 387.703 123.696 387.961 124.026 388.145C124.357 388.329 124.726 388.42 125.131 388.42C125.546 388.42 125.891 388.325 126.168 388.134C126.446 387.942 126.642 387.674 126.756 387.33C126.87 386.985 126.89 386.583 126.816 386.125C126.744 385.682 126.597 385.294 126.375 384.96C126.156 384.629 125.881 384.371 125.551 384.188C125.222 384.004 124.855 383.912 124.452 383.912ZM124.5 384.625C124.773 384.625 125.011 384.697 125.213 384.841C125.418 384.985 125.585 385.176 125.713 385.415C125.842 385.653 125.93 385.915 125.978 386.199C126.021 386.473 126.02 386.724 125.975 386.952C125.931 387.181 125.837 387.365 125.691 387.503C125.545 387.641 125.342 387.71 125.083 387.71C124.81 387.71 124.57 387.637 124.364 387.491C124.159 387.348 123.993 387.155 123.864 386.915C123.737 386.674 123.651 386.412 123.605 386.128C123.562 385.855 123.562 385.604 123.605 385.375C123.649 385.148 123.744 384.966 123.89 384.83C124.035 384.693 124.239 384.625 124.5 384.625ZM131.235 387.298L130.443 387.162C130.426 387.262 130.391 387.357 130.338 387.446C130.287 387.535 130.208 387.607 130.102 387.662C129.996 387.719 129.855 387.747 129.679 387.747C129.434 387.747 129.22 387.691 129.037 387.58C128.855 387.468 128.751 387.326 128.724 387.153C128.699 387.013 128.733 386.9 128.824 386.812C128.914 386.727 129.074 386.656 129.304 386.599L129.974 386.44C130.36 386.348 130.637 386.203 130.804 386.006C130.972 385.811 131.031 385.557 130.98 385.244C130.936 384.985 130.823 384.755 130.639 384.554C130.457 384.353 130.224 384.196 129.94 384.082C129.656 383.969 129.34 383.912 128.991 383.912C128.495 383.912 128.109 384.017 127.832 384.227C127.556 384.437 127.413 384.735 127.406 385.119L128.247 385.244C128.262 385.03 128.339 384.868 128.477 384.759C128.617 384.651 128.811 384.597 129.059 384.597C129.343 384.595 129.581 384.654 129.772 384.776C129.964 384.897 130.073 385.044 130.099 385.216C130.122 385.35 130.092 385.462 130.008 385.551C129.927 385.64 129.783 385.708 129.576 385.756L128.872 385.918C128.478 386.01 128.199 386.16 128.037 386.366C127.874 386.573 127.819 386.832 127.872 387.145C127.913 387.401 128.021 387.623 128.196 387.812C128.372 388.004 128.594 388.152 128.863 388.259C129.132 388.366 129.43 388.42 129.755 388.42C130.231 388.42 130.588 388.318 130.826 388.114C131.065 387.911 131.201 387.639 131.235 387.298ZM135.525 387.298L134.732 387.162C134.715 387.262 134.68 387.357 134.627 387.446C134.576 387.535 134.497 387.607 134.391 387.662C134.285 387.719 134.144 387.747 133.968 387.747C133.723 387.747 133.509 387.691 133.326 387.58C133.144 387.468 133.04 387.326 133.013 387.153C132.989 387.013 133.022 386.9 133.113 386.812C133.203 386.727 133.364 386.656 133.593 386.599L134.263 386.44C134.65 386.348 134.926 386.203 135.093 386.006C135.261 385.811 135.32 385.557 135.269 385.244C135.225 384.985 135.112 384.755 134.928 384.554C134.746 384.353 134.513 384.196 134.229 384.082C133.945 383.969 133.629 383.912 133.28 383.912C132.784 383.912 132.398 384.017 132.121 384.227C131.845 384.437 131.703 384.735 131.695 385.119L132.536 385.244C132.551 385.03 132.628 384.868 132.766 384.759C132.906 384.651 133.1 384.597 133.348 384.597C133.632 384.595 133.87 384.654 134.061 384.776C134.253 384.897 134.362 385.044 134.388 385.216C134.411 385.35 134.381 385.462 134.297 385.551C134.216 385.64 134.072 385.708 133.865 385.756L133.161 385.918C132.767 386.01 132.489 386.16 132.326 386.366C132.163 386.573 132.108 386.832 132.161 387.145C132.203 387.401 132.31 387.623 132.485 387.812C132.661 388.004 132.883 388.152 133.152 388.259C133.421 388.366 133.719 388.42 134.044 388.42C134.52 388.42 134.877 388.318 135.115 388.114C135.354 387.911 135.49 387.639 135.525 387.298ZM137.85 383.912C137.436 383.912 137.089 384.007 136.811 384.196C136.532 384.387 136.336 384.654 136.223 384.997C136.111 385.342 136.092 385.742 136.166 386.199C136.238 386.646 136.383 387.036 136.6 387.369C136.82 387.703 137.095 387.961 137.424 388.145C137.756 388.329 138.124 388.42 138.529 388.42C138.944 388.42 139.29 388.325 139.566 388.134C139.845 387.942 140.041 387.674 140.154 387.33C140.268 386.985 140.288 386.583 140.214 386.125C140.142 385.682 139.995 385.294 139.774 384.96C139.554 384.629 139.279 384.371 138.95 384.188C138.62 384.004 138.254 383.912 137.85 383.912ZM137.899 384.625C138.172 384.625 138.409 384.697 138.612 384.841C138.816 384.985 138.983 385.176 139.112 385.415C139.241 385.653 139.329 385.915 139.376 386.199C139.42 386.473 139.419 386.724 139.373 386.952C139.33 387.181 139.235 387.365 139.089 387.503C138.943 387.641 138.741 387.71 138.481 387.71C138.208 387.71 137.969 387.637 137.762 387.491C137.558 387.348 137.391 387.155 137.262 386.915C137.136 386.674 137.049 386.412 137.004 386.128C136.96 385.855 136.96 385.604 137.004 385.375C137.047 385.148 137.142 384.966 137.288 384.83C137.434 384.693 137.637 384.625 137.899 384.625ZM144.634 387.298L143.841 387.162C143.824 387.262 143.789 387.357 143.736 387.446C143.685 387.535 143.606 387.607 143.5 387.662C143.394 387.719 143.253 387.747 143.077 387.747C142.833 387.747 142.619 387.691 142.435 387.58C142.253 387.468 142.149 387.326 142.123 387.153C142.098 387.013 142.131 386.9 142.222 386.812C142.313 386.727 142.473 386.656 142.702 386.599L143.373 386.44C143.759 386.348 144.035 386.203 144.202 386.006C144.371 385.811 144.429 385.557 144.378 385.244C144.335 384.985 144.221 384.755 144.037 384.554C143.855 384.353 143.623 384.196 143.338 384.082C143.054 383.969 142.738 383.912 142.39 383.912C141.893 383.912 141.507 384.017 141.23 384.227C140.954 384.437 140.812 384.735 140.804 385.119L141.645 385.244C141.66 385.03 141.737 384.868 141.875 384.759C142.016 384.651 142.21 384.597 142.458 384.597C142.742 384.595 142.98 384.654 143.171 384.776C143.362 384.897 143.471 385.044 143.498 385.216C143.52 385.35 143.49 385.462 143.407 385.551C143.325 385.64 143.181 385.708 142.975 385.756L142.27 385.918C141.876 386.01 141.598 386.16 141.435 386.366C141.272 386.573 141.217 386.832 141.27 387.145C141.312 387.401 141.42 387.623 141.594 387.812C141.77 388.004 141.993 388.152 142.262 388.259C142.531 388.366 142.828 388.42 143.154 388.42C143.629 388.42 143.986 388.318 144.225 388.114C144.463 387.911 144.6 387.639 144.634 387.298ZM151.165 388.256C151.167 388.542 151.074 388.76 150.887 388.912C150.701 389.063 150.442 389.139 150.108 389.139C149.87 389.139 149.657 389.101 149.469 389.026C149.283 388.952 149.132 388.849 149.015 388.719C148.899 388.59 148.828 388.443 148.801 388.278C148.777 388.14 148.789 388.021 148.838 387.92C148.89 387.82 148.962 387.736 149.057 387.668C149.154 387.601 149.26 387.545 149.375 387.5C149.491 387.456 149.603 387.42 149.711 387.392L150.256 387.244C150.432 387.199 150.611 387.137 150.793 387.06C150.975 386.982 151.139 386.88 151.284 386.753C151.43 386.626 151.539 386.469 151.611 386.281C151.683 386.094 151.697 385.869 151.654 385.608C151.597 385.278 151.463 384.986 151.253 384.73C151.043 384.474 150.766 384.273 150.421 384.125C150.076 383.977 149.676 383.903 149.222 383.903C148.786 383.903 148.42 383.973 148.123 384.111C147.827 384.249 147.61 384.445 147.472 384.699C147.334 384.955 147.284 385.258 147.324 385.608H148.208C148.187 385.398 148.225 385.223 148.321 385.082C148.42 384.944 148.558 384.841 148.736 384.773C148.914 384.706 149.116 384.673 149.341 384.673C149.591 384.673 149.819 384.712 150.026 384.79C150.232 384.869 150.403 384.979 150.537 385.119C150.672 385.261 150.754 385.427 150.784 385.616C150.815 385.789 150.79 385.93 150.711 386.04C150.633 386.15 150.516 386.241 150.358 386.312C150.203 386.384 150.026 386.448 149.827 386.503L149.171 386.69C148.726 386.817 148.389 387.004 148.159 387.25C147.93 387.496 147.848 387.822 147.912 388.227C147.969 388.563 148.109 388.855 148.333 389.105C148.556 389.355 148.835 389.549 149.168 389.688C149.501 389.828 149.863 389.898 150.253 389.898C150.647 389.898 150.982 389.828 151.259 389.688C151.535 389.547 151.74 389.354 151.873 389.108C152.005 388.862 152.051 388.578 152.012 388.256H151.165ZM154.225 383.912C153.811 383.912 153.464 384.007 153.186 384.196C152.907 384.387 152.711 384.654 152.598 384.997C152.486 385.342 152.467 385.742 152.541 386.199C152.613 386.646 152.758 387.036 152.975 387.369C153.195 387.703 153.47 387.961 153.799 388.145C154.131 388.329 154.499 388.42 154.904 388.42C155.319 388.42 155.665 388.325 155.941 388.134C156.22 387.942 156.416 387.674 156.529 387.33C156.643 386.985 156.663 386.583 156.589 386.125C156.517 385.682 156.37 385.294 156.149 384.96C155.929 384.629 155.654 384.371 155.325 384.188C154.995 384.004 154.629 383.912 154.225 383.912ZM154.274 384.625C154.547 384.625 154.784 384.697 154.987 384.841C155.191 384.985 155.358 385.176 155.487 385.415C155.616 385.653 155.704 385.915 155.751 386.199C155.795 386.473 155.794 386.724 155.748 386.952C155.705 387.181 155.61 387.365 155.464 387.503C155.318 387.641 155.116 387.71 154.856 387.71C154.583 387.71 154.344 387.637 154.137 387.491C153.933 387.348 153.766 387.155 153.637 386.915C153.511 386.674 153.424 386.412 153.379 386.128C153.335 385.855 153.335 385.604 153.379 385.375C153.422 385.148 153.517 384.966 153.663 384.83C153.809 384.693 154.012 384.625 154.274 384.625ZM158.466 386.591L158.04 384H157.191L157.918 388.364H158.733L158.614 387.653H158.668C158.806 387.886 158.995 388.072 159.233 388.21C159.474 388.35 159.758 388.42 160.086 388.42C160.381 388.42 160.629 388.358 160.83 388.233C161.033 388.11 161.176 387.926 161.259 387.682C161.344 387.438 161.357 387.135 161.299 386.776L160.833 384H159.983L160.429 386.673C160.48 386.99 160.439 387.237 160.304 387.415C160.172 387.595 159.961 387.685 159.671 387.685C159.474 387.685 159.291 387.642 159.123 387.557C158.956 387.472 158.815 387.347 158.699 387.182C158.586 387.019 158.508 386.822 158.466 386.591ZM163.248 386.591L162.821 384H161.972L162.938 389.818H163.776L163.418 387.653H163.472C163.61 387.89 163.796 388.077 164.029 388.213C164.264 388.351 164.551 388.42 164.892 388.42C165.192 388.42 165.443 388.359 165.645 388.236C165.85 388.113 165.994 387.929 166.077 387.685C166.162 387.442 166.176 387.139 166.117 386.776L165.651 384H164.801L165.245 386.673C165.298 386.993 165.256 387.241 165.12 387.418C164.983 387.596 164.77 387.685 164.48 387.685C164.278 387.685 164.09 387.642 163.918 387.557C163.748 387.472 163.604 387.347 163.486 387.182C163.369 387.019 163.289 386.822 163.248 386.591ZM168.64 383.912C168.225 383.912 167.878 384.007 167.6 384.196C167.321 384.387 167.125 384.654 167.012 384.997C166.9 385.342 166.881 385.742 166.955 386.199C167.027 386.646 167.172 387.036 167.39 387.369C167.609 387.703 167.884 387.961 168.213 388.145C168.545 388.329 168.913 388.42 169.319 388.42C169.733 388.42 170.079 388.325 170.355 388.134C170.634 387.942 170.83 387.674 170.944 387.33C171.057 386.985 171.077 386.583 171.003 386.125C170.931 385.682 170.784 385.294 170.563 384.96C170.343 384.629 170.069 384.371 169.739 384.188C169.409 384.004 169.043 383.912 168.64 383.912ZM168.688 384.625C168.961 384.625 169.198 384.697 169.401 384.841C169.605 384.985 169.772 385.176 169.901 385.415C170.03 385.653 170.118 385.915 170.165 386.199C170.209 386.473 170.208 386.724 170.162 386.952C170.119 387.181 170.024 387.365 169.878 387.503C169.732 387.641 169.53 387.71 169.27 387.71C168.998 387.71 168.758 387.637 168.551 387.491C168.347 387.348 168.18 387.155 168.051 386.915C167.925 386.674 167.838 386.412 167.793 386.128C167.749 385.855 167.749 385.604 167.793 385.375C167.837 385.148 167.931 384.966 168.077 384.83C168.223 384.693 168.426 384.625 168.688 384.625ZM175.423 387.298L174.63 387.162C174.613 387.262 174.578 387.357 174.525 387.446C174.474 387.535 174.395 387.607 174.289 387.662C174.183 387.719 174.042 387.747 173.866 387.747C173.622 387.747 173.408 387.691 173.224 387.58C173.042 387.468 172.938 387.326 172.912 387.153C172.887 387.013 172.92 386.9 173.011 386.812C173.102 386.727 173.262 386.656 173.491 386.599L174.162 386.44C174.548 386.348 174.824 386.203 174.991 386.006C175.16 385.811 175.218 385.557 175.167 385.244C175.124 384.985 175.01 384.755 174.826 384.554C174.645 384.353 174.412 384.196 174.127 384.082C173.843 383.969 173.527 383.912 173.179 383.912C172.682 383.912 172.296 384.017 172.02 384.227C171.743 384.437 171.601 384.735 171.593 385.119L172.434 385.244C172.449 385.03 172.526 384.868 172.664 384.759C172.805 384.651 172.999 384.597 173.247 384.597C173.531 384.595 173.769 384.654 173.96 384.776C174.151 384.897 174.26 385.044 174.287 385.216C174.309 385.35 174.279 385.462 174.196 385.551C174.114 385.64 173.97 385.708 173.764 385.756L173.059 385.918C172.665 386.01 172.387 386.16 172.224 386.366C172.061 386.573 172.006 386.832 172.059 387.145C172.101 387.401 172.209 387.623 172.383 387.812C172.559 388.004 172.782 388.152 173.051 388.259C173.32 388.366 173.617 388.42 173.943 388.42C174.418 388.42 174.775 388.318 175.014 388.114C175.252 387.911 175.389 387.639 175.423 387.298ZM178.63 389.062L178.755 389.818H183.258L183.133 389.062H181.318L180.477 384H179.602L180.443 389.062H178.63ZM184.456 383.912C184.028 383.912 183.673 384.004 183.393 384.188C183.115 384.373 182.92 384.634 182.808 384.969C182.696 385.306 182.678 385.701 182.754 386.153C182.828 386.6 182.976 386.994 183.2 387.335C183.423 387.676 183.702 387.942 184.035 388.134C184.37 388.325 184.741 388.42 185.146 388.42C185.392 388.42 185.624 388.38 185.842 388.298C186.062 388.217 186.248 388.089 186.402 387.915C186.555 387.741 186.661 387.514 186.72 387.236C186.78 386.959 186.779 386.623 186.714 386.227L186.666 385.926H183.194L183.294 386.562H185.93C185.97 386.786 185.959 386.984 185.899 387.156C185.838 387.33 185.734 387.468 185.586 387.568C185.44 387.669 185.257 387.719 185.035 387.719C184.808 387.719 184.596 387.659 184.399 387.54C184.202 387.42 184.037 387.268 183.904 387.082C183.774 386.899 183.691 386.709 183.657 386.514L183.558 385.932C183.509 385.614 183.517 385.358 183.583 385.165C183.652 384.972 183.771 384.831 183.941 384.744C184.112 384.657 184.325 384.614 184.581 384.614C184.745 384.614 184.898 384.636 185.038 384.682C185.18 384.729 185.306 384.798 185.416 384.889C185.526 384.982 185.618 385.098 185.691 385.236L186.47 385.091C186.366 384.854 186.216 384.647 186.021 384.469C185.826 384.293 185.596 384.155 185.331 384.057C185.067 383.96 184.776 383.912 184.456 383.912ZM187.3 384L188.027 388.364H188.843L188.723 387.653H188.777C188.91 387.894 189.09 388.081 189.317 388.216C189.546 388.352 189.806 388.42 190.096 388.42C190.383 388.42 190.615 388.352 190.792 388.216C190.97 388.08 191.086 387.892 191.141 387.653H191.186C191.327 387.888 191.523 388.075 191.775 388.213C192.026 388.351 192.31 388.42 192.624 388.42C193.016 388.42 193.317 388.295 193.527 388.045C193.739 387.797 193.804 387.424 193.721 386.926L193.232 384H192.38L192.857 386.847C192.904 387.144 192.859 387.358 192.721 387.489C192.582 387.621 192.401 387.688 192.178 387.688C191.901 387.688 191.672 387.602 191.49 387.432C191.309 387.263 191.197 387.046 191.155 386.781L190.686 384H189.843L190.328 386.901C190.366 387.139 190.323 387.33 190.198 387.472C190.075 387.616 189.895 387.688 189.658 387.688C189.497 387.688 189.341 387.645 189.189 387.56C189.04 387.474 188.912 387.357 188.806 387.207C188.7 387.058 188.631 386.885 188.598 386.69L188.15 384H187.3ZM202.081 386.852C201.979 386.241 201.78 385.716 201.485 385.278C201.191 384.841 200.831 384.505 200.405 384.27C199.981 384.037 199.523 383.92 199.03 383.92C198.517 383.92 198.078 384.043 197.715 384.287C197.353 384.533 197.094 384.883 196.936 385.335C196.779 385.79 196.753 386.331 196.857 386.96C196.959 387.572 197.157 388.097 197.451 388.534C197.746 388.973 198.107 389.311 198.533 389.545C198.961 389.78 199.423 389.898 199.919 389.898C200.429 389.898 200.864 389.775 201.223 389.528C201.585 389.284 201.845 388.934 202.002 388.477C202.159 388.023 202.185 387.481 202.081 386.852ZM201.226 386.96C201.304 387.424 201.294 387.814 201.198 388.131C201.103 388.449 200.941 388.689 200.712 388.852C200.483 389.015 200.206 389.097 199.882 389.097C199.538 389.097 199.215 389.009 198.914 388.835C198.614 388.661 198.359 388.407 198.147 388.074C197.935 387.741 197.79 387.333 197.712 386.852C197.632 386.388 197.641 385.998 197.738 385.682C197.834 385.366 197.997 385.126 198.226 384.963C198.457 384.802 198.735 384.722 199.059 384.722C199.401 384.722 199.722 384.808 200.022 384.98C200.323 385.154 200.579 385.407 200.792 385.739C201.004 386.072 201.149 386.479 201.226 386.96ZM205.784 389.818H206.85L207.958 385.295H208.026L210.623 389.818H211.688L210.722 384H209.887L210.588 388.21H210.534L208.12 384.009H207.424L206.412 388.213H206.358L205.654 384H204.819L205.784 389.818ZM213.799 383.912C213.371 383.912 213.017 384.004 212.737 384.188C212.458 384.373 212.263 384.634 212.152 384.969C212.04 385.306 212.022 385.701 212.098 386.153C212.172 386.6 212.32 386.994 212.544 387.335C212.767 387.676 213.046 387.942 213.379 388.134C213.714 388.325 214.084 388.42 214.49 388.42C214.736 388.42 214.968 388.38 215.186 388.298C215.405 388.217 215.592 388.089 215.745 387.915C215.899 387.741 216.005 387.514 216.064 387.236C216.124 386.959 216.122 386.623 216.058 386.227L216.01 385.926H212.538L212.637 386.562H215.274C215.314 386.786 215.303 386.984 215.243 387.156C215.182 387.33 215.078 387.468 214.93 387.568C214.784 387.669 214.6 387.719 214.379 387.719C214.152 387.719 213.94 387.659 213.743 387.54C213.546 387.42 213.381 387.268 213.248 387.082C213.118 386.899 213.035 386.709 213.001 386.514L212.902 385.932C212.852 385.614 212.861 385.358 212.927 385.165C212.995 384.972 213.115 384.831 213.285 384.744C213.456 384.657 213.669 384.614 213.924 384.614C214.089 384.614 214.242 384.636 214.382 384.682C214.524 384.729 214.65 384.798 214.76 384.889C214.869 384.982 214.961 385.098 215.035 385.236L215.814 385.091C215.709 384.854 215.56 384.647 215.365 384.469C215.17 384.293 214.94 384.155 214.674 384.057C214.411 383.96 214.119 383.912 213.799 383.912ZM220.462 387.298L219.669 387.162C219.652 387.262 219.617 387.357 219.564 387.446C219.513 387.535 219.435 387.607 219.328 387.662C219.222 387.719 219.081 387.747 218.905 387.747C218.661 387.747 218.447 387.691 218.263 387.58C218.081 387.468 217.977 387.326 217.951 387.153C217.926 387.013 217.959 386.9 218.05 386.812C218.141 386.727 218.301 386.656 218.53 386.599L219.201 386.44C219.587 386.348 219.864 386.203 220.03 386.006C220.199 385.811 220.257 385.557 220.206 385.244C220.163 384.985 220.049 384.755 219.865 384.554C219.684 384.353 219.451 384.196 219.167 384.082C218.882 383.969 218.566 383.912 218.218 383.912C217.721 383.912 217.335 384.017 217.059 384.227C216.782 384.437 216.64 384.735 216.632 385.119L217.473 385.244C217.489 385.03 217.565 384.868 217.703 384.759C217.844 384.651 218.038 384.597 218.286 384.597C218.57 384.595 218.808 384.654 218.999 384.776C219.19 384.897 219.299 385.044 219.326 385.216C219.348 385.35 219.318 385.462 219.235 385.551C219.153 385.64 219.009 385.708 218.803 385.756L218.098 385.918C217.704 386.01 217.426 386.16 217.263 386.366C217.1 386.573 217.045 386.832 217.098 387.145C217.14 387.401 217.248 387.623 217.422 387.812C217.598 388.004 217.821 388.152 218.09 388.259C218.359 388.366 218.656 388.42 218.982 388.42C219.457 388.42 219.814 388.318 220.053 388.114C220.292 387.911 220.428 387.639 220.462 387.298ZM220.933 384L221.66 388.364H222.475L222.356 387.653H222.41C222.543 387.894 222.723 388.081 222.95 388.216C223.179 388.352 223.439 388.42 223.728 388.42C224.016 388.42 224.248 388.352 224.424 388.216C224.602 388.08 224.719 387.892 224.774 387.653H224.819C224.959 387.888 225.155 388.075 225.407 388.213C225.659 388.351 225.942 388.42 226.257 388.42C226.649 388.42 226.95 388.295 227.16 388.045C227.372 387.797 227.437 387.424 227.353 386.926L226.865 384H226.012L226.49 386.847C226.537 387.144 226.492 387.358 226.353 387.489C226.215 387.621 226.034 387.688 225.811 387.688C225.534 387.688 225.305 387.602 225.123 387.432C224.941 387.263 224.83 387.046 224.788 386.781L224.319 384H223.475L223.961 386.901C223.999 387.139 223.956 387.33 223.831 387.472C223.708 387.616 223.528 387.688 223.291 387.688C223.13 387.688 222.974 387.645 222.822 387.56C222.672 387.474 222.545 387.357 222.439 387.207C222.333 387.058 222.263 386.885 222.231 386.69L221.782 384H220.933ZM229.858 383.912C229.444 383.912 229.097 384.007 228.819 384.196C228.54 384.387 228.344 384.654 228.23 384.997C228.119 385.342 228.1 385.742 228.174 386.199C228.246 386.646 228.391 387.036 228.608 387.369C228.828 387.703 229.103 387.961 229.432 388.145C229.764 388.329 230.132 388.42 230.537 388.42C230.952 388.42 231.298 388.325 231.574 388.134C231.853 387.942 232.049 387.674 232.162 387.33C232.276 386.985 232.296 386.583 232.222 386.125C232.15 385.682 232.003 385.294 231.782 384.96C231.562 384.629 231.287 384.371 230.958 384.188C230.628 384.004 230.262 383.912 229.858 383.912ZM229.907 384.625C230.179 384.625 230.417 384.697 230.62 384.841C230.824 384.985 230.991 385.176 231.12 385.415C231.248 385.653 231.337 385.915 231.384 386.199C231.427 386.473 231.426 386.724 231.381 386.952C231.337 387.181 231.243 387.365 231.097 387.503C230.951 387.641 230.748 387.71 230.489 387.71C230.216 387.71 229.977 387.637 229.77 387.491C229.566 387.348 229.399 387.155 229.27 386.915C229.143 386.674 229.057 386.412 229.012 386.128C228.968 385.855 228.968 385.604 229.012 385.375C229.055 385.148 229.15 384.966 229.296 384.83C229.442 384.693 229.645 384.625 229.907 384.625ZM236.48 389.818L237.319 385.08H237.384L239.784 389.818H240.733L237.674 384H236.659L235.532 389.818H236.48ZM241.368 383.903C241.092 383.903 240.85 383.955 240.644 384.057C240.437 384.161 240.285 384.312 240.186 384.509C240.088 384.705 240.062 384.947 240.11 385.233C240.151 385.479 240.233 385.682 240.354 385.841C240.477 386 240.627 386.126 240.803 386.219C240.979 386.313 241.17 386.384 241.377 386.432C241.583 386.479 241.792 386.514 242.002 386.537C242.267 386.567 242.482 386.593 242.647 386.614C242.813 386.634 242.938 386.667 243.022 386.71C243.105 386.756 243.155 386.83 243.172 386.932V386.952C243.212 387.198 243.176 387.389 243.064 387.526C242.954 387.664 242.763 387.733 242.49 387.733C242.206 387.733 241.968 387.67 241.775 387.545C241.583 387.42 241.442 387.28 241.351 387.125L240.59 387.307C240.726 387.572 240.9 387.786 241.11 387.949C241.322 388.114 241.554 388.233 241.806 388.307C242.058 388.383 242.315 388.42 242.578 388.42C242.753 388.42 242.934 388.4 243.121 388.358C243.309 388.318 243.479 388.244 243.632 388.136C243.788 388.028 243.903 387.874 243.979 387.673C244.055 387.474 244.066 387.216 244.013 386.898L243.533 384H242.703L242.806 384.597H242.772C242.7 384.487 242.599 384.379 242.471 384.273C242.344 384.167 242.188 384.079 242.005 384.009C241.821 383.938 241.609 383.903 241.368 383.903ZM241.658 384.585C241.895 384.585 242.104 384.632 242.286 384.724C242.47 384.817 242.618 384.938 242.732 385.088C242.846 385.24 242.917 385.402 242.945 385.574L243.039 386.136C243.003 386.106 242.939 386.079 242.848 386.054C242.759 386.029 242.659 386.008 242.547 385.989C242.435 385.97 242.326 385.954 242.218 385.94C242.112 385.927 242.024 385.915 241.953 385.903C241.787 385.883 241.631 385.848 241.485 385.798C241.341 385.749 241.221 385.678 241.124 385.585C241.027 385.494 240.967 385.373 240.942 385.222C240.908 385.011 240.958 384.852 241.093 384.744C241.229 384.638 241.417 384.585 241.658 384.585ZM246.48 389.818L245.514 384H244.664L245.63 389.818H246.48ZM248.515 383.912C248.1 383.912 247.753 384.007 247.475 384.196C247.196 384.387 247 384.654 246.887 384.997C246.775 385.342 246.756 385.742 246.83 386.199C246.902 386.646 247.047 387.036 247.265 387.369C247.484 387.703 247.759 387.961 248.088 388.145C248.42 388.329 248.788 388.42 249.194 388.42C249.608 388.42 249.954 388.325 250.23 388.134C250.509 387.942 250.705 387.674 250.819 387.33C250.932 386.985 250.952 386.583 250.878 386.125C250.806 385.682 250.659 385.294 250.438 384.96C250.218 384.629 249.944 384.371 249.614 384.188C249.284 384.004 248.918 383.912 248.515 383.912ZM248.563 384.625C248.836 384.625 249.073 384.697 249.276 384.841C249.48 384.985 249.647 385.176 249.776 385.415C249.905 385.653 249.993 385.915 250.04 386.199C250.084 386.473 250.083 386.724 250.037 386.952C249.994 387.181 249.899 387.365 249.753 387.503C249.607 387.641 249.405 387.71 249.145 387.71C248.873 387.71 248.633 387.637 248.426 387.491C248.222 387.348 248.055 387.155 247.926 386.915C247.8 386.674 247.713 386.412 247.668 386.128C247.624 385.855 247.624 385.604 247.668 385.375C247.712 385.148 247.806 384.966 247.952 384.83C248.098 384.693 248.301 384.625 248.563 384.625ZM251.477 384L252.204 388.364H253.025L252.909 387.67H252.954C253.072 387.905 253.243 388.09 253.468 388.224C253.694 388.361 253.934 388.429 254.19 388.429C254.245 388.429 254.307 388.427 254.377 388.423C254.448 388.421 254.504 388.417 254.548 388.409L254.412 387.597C254.379 387.606 254.321 387.616 254.235 387.628C254.15 387.641 254.062 387.648 253.971 387.648C253.772 387.648 253.588 387.605 253.417 387.52C253.247 387.437 253.104 387.32 252.988 387.17C252.873 387.023 252.798 386.854 252.764 386.665L252.326 384H251.477ZM256.392 389.818L256.306 389.273C256.28 389.112 256.221 388.942 256.13 388.764C256.041 388.588 255.929 388.419 255.792 388.256C255.658 388.093 255.509 387.953 255.346 387.835L254.971 388.136C255.109 388.299 255.234 388.473 255.346 388.656C255.458 388.84 255.533 389.043 255.571 389.264L255.664 389.818H256.392ZM257.838 389.818L257.752 389.273C257.726 389.112 257.667 388.942 257.576 388.764C257.487 388.588 257.375 388.419 257.238 388.256C257.104 388.093 256.954 387.953 256.789 387.835L256.414 388.136C256.553 388.299 256.678 388.473 256.789 388.656C256.903 388.84 256.979 389.043 257.017 389.264L257.11 389.818H257.838Z" fill="white"/>
<path d="M121.152 423.968V425.192H122.24C122.512 425.192 122.757 425.232 122.976 425.312C123.194 425.397 123.381 425.515 123.536 425.664C123.69 425.819 123.808 426.003 123.888 426.216C123.968 426.435 124.008 426.675 124.008 426.936C124.008 427.208 123.968 427.451 123.888 427.664C123.808 427.877 123.69 428.059 123.536 428.208C123.381 428.357 123.194 428.469 122.976 428.544C122.757 428.624 122.512 428.664 122.24 428.664H121.152V429.888H122.168C122.696 429.888 123.157 429.811 123.552 429.656C123.946 429.501 124.277 429.291 124.544 429.024C124.81 428.757 125.008 428.451 125.136 428.104C125.269 427.763 125.336 427.403 125.336 427.024V426.848C125.336 426.496 125.269 426.147 125.136 425.8C125.008 425.459 124.81 425.149 124.544 424.872C124.277 424.6 123.946 424.381 123.552 424.216C123.157 424.051 122.696 423.968 122.168 423.968H121.152ZM120 423.968V429.888H121.312V423.968H120ZM126.25 424V429.84H127.53V424H126.25ZM127.37 424V425.088H129.922V424H127.37ZM127.37 426.424V427.512H129.738V426.424H127.37ZM127.37 428.752V429.84H129.866V428.752H127.37ZM132.288 424L130.512 429.84H131.864L133.272 424.912L132.968 425.064H133.784L133.464 424.912L134.768 429.84H136.08L134.424 424H132.288ZM138.601 424V429.84H139.913V424H138.601ZM139.753 426.352V427.44H142.009V426.352H139.753ZM139.753 428.752V429.84H142.105V428.752H139.753ZM143.078 424V429.888H144.39V424H143.078ZM146.622 424L144.91 426.512H146.35L148.142 424H146.622ZM144.038 425.872V426.904H145.478C145.67 426.904 145.835 426.941 145.974 427.016C146.118 427.096 146.227 427.205 146.302 427.344C146.382 427.488 146.422 427.653 146.422 427.84C146.422 428.027 146.382 428.189 146.302 428.328C146.227 428.472 146.118 428.581 145.974 428.656C145.835 428.736 145.67 428.776 145.478 428.776H144.038V429.888H145.374C145.859 429.888 146.281 429.813 146.638 429.664C146.995 429.52 147.27 429.304 147.462 429.016C147.654 428.728 147.75 428.365 147.75 427.928V427.8C147.75 427.368 147.651 427.008 147.454 426.72C147.262 426.437 146.987 426.224 146.63 426.08C146.278 425.941 145.859 425.872 145.374 425.872H144.038ZM151.651 423.848C151.123 423.848 150.662 423.939 150.267 424.12C149.878 424.307 149.555 424.549 149.299 424.848C149.043 425.152 148.851 425.48 148.723 425.832C148.601 426.184 148.539 426.523 148.539 426.848V427.024C148.539 427.387 148.603 427.744 148.731 428.096C148.865 428.453 149.062 428.776 149.323 429.064C149.585 429.352 149.91 429.581 150.299 429.752C150.689 429.928 151.139 430.016 151.651 430.016C152.163 430.016 152.614 429.928 153.003 429.752C153.393 429.581 153.718 429.352 153.979 429.064C154.241 428.776 154.438 428.453 154.571 428.096C154.705 427.744 154.771 427.387 154.771 427.024V426.848C154.771 426.523 154.707 426.184 154.579 425.832C154.451 425.48 154.259 425.152 154.003 424.848C153.747 424.549 153.422 424.307 153.027 424.12C152.638 423.939 152.179 423.848 151.651 423.848ZM151.651 425.072C151.929 425.072 152.177 425.12 152.395 425.216C152.619 425.312 152.809 425.445 152.963 425.616C153.123 425.787 153.243 425.984 153.323 426.208C153.403 426.432 153.443 426.672 153.443 426.928C153.443 427.2 153.401 427.448 153.315 427.672C153.235 427.901 153.115 428.099 152.955 428.264C152.801 428.435 152.614 428.565 152.395 428.656C152.177 428.747 151.929 428.792 151.651 428.792C151.374 428.792 151.126 428.747 150.907 428.656C150.689 428.565 150.499 428.435 150.339 428.264C150.185 428.099 150.067 427.901 149.987 427.672C149.907 427.448 149.867 427.2 149.867 426.928C149.867 426.672 149.907 426.432 149.987 426.208C150.067 425.984 150.185 425.787 150.339 425.616C150.499 425.445 150.689 425.312 150.907 425.216C151.126 425.12 151.374 425.072 151.651 425.072ZM155.765 424V429.84H157.917L160.117 425.064H160.389L160.229 424.92V429.84H161.461V424H159.293L157.093 428.776H156.821L156.981 428.92V424H155.765ZM163.933 424V428.856H165.245V424H163.933ZM162.293 428.696V429.84H166.893V428.696H162.293ZM166.93 425.696V426.832H170.298V425.696H166.93ZM171.304 424V429.84H172.584V424H171.304ZM172.424 424V425.088H174.976V424H172.424ZM172.424 426.424V427.512H174.792V426.424H172.424ZM172.424 428.752V429.84H174.92V428.752H172.424ZM176.054 424V429.84H178.206L180.406 425.064H180.678L180.518 424.92V429.84H181.75V424H179.582L177.382 428.776H177.11L177.27 428.92V424H176.054ZM184.214 423.968V425.192H185.302C185.574 425.192 185.82 425.232 186.038 425.312C186.257 425.397 186.444 425.515 186.598 425.664C186.753 425.819 186.87 426.003 186.95 426.216C187.03 426.435 187.07 426.675 187.07 426.936C187.07 427.208 187.03 427.451 186.95 427.664C186.87 427.877 186.753 428.059 186.598 428.208C186.444 428.357 186.257 428.469 186.038 428.544C185.82 428.624 185.574 428.664 185.302 428.664H184.214V429.888H185.23C185.758 429.888 186.22 429.811 186.614 429.656C187.009 429.501 187.34 429.291 187.606 429.024C187.873 428.757 188.07 428.451 188.198 428.104C188.332 427.763 188.398 427.403 188.398 427.024V426.848C188.398 426.496 188.332 426.147 188.198 425.8C188.07 425.459 187.873 425.149 187.606 424.872C187.34 424.6 187.009 424.381 186.614 424.216C186.22 424.051 185.758 423.968 185.23 423.968H184.214ZM183.062 423.968V429.888H184.374V423.968H183.062Z" fill="white"/>
<rect width="233" height="55" rx="16" transform="matrix(1 0 0 -1 42 94)" fill="#D9D9D9" fill-opacity="0.15"/>
<defs>
<clipPath id="clip0_1_754">
<rect width="200" height="200" rx="16" transform="matrix(1 0 0 -1 54 338)" fill="white"/>
</clipPath>
</defs>
</svg>
