<svg width="148" height="148" viewBox="0 0 148 148" fill="none" xmlns="http://www.w3.org/2000/svg">
<path id="Vector" d="M51 114.25V121.97C51.0004 124.992 50.4054 127.984 49.2491 130.775C48.0928 133.567 46.3978 136.103 44.261 138.239L39.5 143H108.5L103.739 138.239C101.602 136.103 99.9072 133.567 98.7509 130.775C97.5946 127.984 96.9996 124.992 97 121.97V114.25M143 22.25V97C143 101.575 141.183 105.963 137.948 109.198C134.713 112.433 130.325 114.25 125.75 114.25H22.25C17.675 114.25 13.2874 112.433 10.0524 109.198C6.81741 105.963 5 101.575 5 97V22.25M143 22.25C143 17.675 141.183 13.2874 137.948 10.0524C134.713 6.81741 130.325 5 125.75 5H22.25C17.675 5 13.2874 6.81741 10.0524 10.0524C6.81741 13.2874 5 17.675 5 22.25M143 22.25V74C143 78.575 141.183 82.9626 137.948 86.1976C134.713 89.4326 130.325 91.25 125.75 91.25H22.25C17.675 91.25 13.2874 89.4326 10.0524 86.1976C6.81741 82.9626 5 78.575 5 74V22.25" stroke="#1BD845" stroke-width="10" stroke-linecap="round" stroke-linejoin="round"/>
</svg>
