<svg width="127" height="150" viewBox="0 0 127 150" fill="none" xmlns="http://www.w3.org/2000/svg">
<path id="Vector" d="M122 34.6154C122 50.9703 95.8062 64.2308 63.5 64.2308C31.1938 64.2308 5 50.9703 5 34.6154M122 34.6154C122 18.2605 95.8062 5 63.5 5C31.1938 5 5 18.2605 5 34.6154M122 34.6154V115.385C122 131.739 95.8062 145 63.5 145C31.1938 145 5 131.739 5 115.385V34.6154M122 34.6154V61.5385M5 34.6154V61.5385M122 61.5385V88.4615C122 104.816 95.8062 118.077 63.5 118.077C31.1938 118.077 5 104.816 5 88.4615V61.5385M122 61.5385C122 77.8933 95.8062 91.1538 63.5 91.1538C31.1938 91.1538 5 77.8933 5 61.5385" stroke="#1BD845" stroke-width="10" stroke-linecap="round" stroke-linejoin="round"/>
</svg>
