<svg width="42" height="40" viewBox="0 0 42 40" fill="none" xmlns="http://www.w3.org/2000/svg">
<path d="M18.4573 0.141315C8.87392 1.16215 1.16559 8.71632 0.12392 17.9038C-0.917747 27.4997 4.70725 36.0747 13.2489 39.3413C13.8739 39.5455 14.4989 39.1372 14.4989 38.3205V35.0538C14.4989 35.0538 13.6656 35.258 12.6239 35.258C9.70726 35.258 8.45726 32.808 8.24892 31.3788C8.04059 30.5622 7.62392 29.9497 6.99892 29.3372C6.37392 29.133 6.16559 29.133 6.16559 28.9288C6.16559 28.5205 6.79059 28.5205 6.99892 28.5205C8.24892 28.5205 9.29059 29.9497 9.70726 30.5622C10.7489 32.1955 11.9989 32.6038 12.6239 32.6038C13.4573 32.6038 14.0823 32.3997 14.4989 32.1955C14.7073 30.7663 15.3323 29.3372 16.5823 28.5205C11.7906 27.4997 8.24892 24.8455 8.24892 20.3538C8.24892 18.108 9.29059 15.8622 10.7489 14.2288C10.5406 13.8205 10.3323 12.7997 10.3323 11.3705C10.3323 10.5538 10.3323 9.32882 10.9573 8.10382C10.9573 8.10382 13.8739 8.10382 16.7906 10.758C17.8323 10.3497 19.2906 10.1455 20.7489 10.1455C22.2073 10.1455 23.6656 10.3497 24.9156 10.758C27.6239 8.10382 30.7489 8.10382 30.7489 8.10382C31.1656 9.32882 31.1656 10.5538 31.1656 11.3705C31.1656 13.0038 30.9573 13.8205 30.7489 14.2288C32.2073 15.8622 33.2489 17.9038 33.2489 20.3538C33.2489 24.8455 29.7073 27.4997 24.9156 28.5205C26.1656 29.5413 26.9989 31.3788 26.9989 33.2163V38.5247C26.9989 39.1372 27.6239 39.7497 28.4573 39.5455C36.1656 36.483 41.5823 29.133 41.5823 20.558C41.5823 8.30798 30.9573 -1.28785 18.4573 0.141315Z" fill="#1BD845"/>
</svg>
