<svg width="41" height="39" viewBox="0 0 41 39" fill="none" xmlns="http://www.w3.org/2000/svg">
<path d="M12.1136 0C5.4325 0 0 5.1675 0 11.5227V27.4773C0 33.8325 5.4325 39 12.1136 39H28.8864C35.5675 39 41 33.8325 41 27.4773V11.5227C41 5.1675 35.5675 0 28.8864 0H12.1136ZM31.6818 7.09091C32.7068 7.09091 33.5455 7.88864 33.5455 8.86364C33.5455 9.83864 32.7068 10.6364 31.6818 10.6364C30.6568 10.6364 29.8182 9.83864 29.8182 8.86364C29.8182 7.88864 30.6568 7.09091 31.6818 7.09091ZM20.5 9.75C26.1561 9.75 30.75 14.1198 30.75 19.5C30.75 24.8802 26.1561 29.25 20.5 29.25C14.8439 29.25 10.25 24.8802 10.25 19.5C10.25 14.1198 14.8439 9.75 20.5 9.75ZM20.5 11.5227C15.8782 11.5227 12.1136 15.1036 12.1136 19.5C12.1136 23.8964 15.8782 27.4773 20.5 27.4773C25.1218 27.4773 28.8864 23.8964 28.8864 19.5C28.8864 15.1036 25.1218 11.5227 20.5 11.5227Z" fill="#1BD845"/>
</svg>
