<svg width="41" height="39" viewBox="0 0 41 39" fill="none" xmlns="http://www.w3.org/2000/svg">
<path d="M36.119 0H4.88095C2.18667 0 0 2.08 0 4.64286V34.3571C0 36.92 2.18667 39 4.88095 39H36.119C38.8133 39 41 36.92 41 34.3571V4.64286C41 2.08 38.8133 0 36.119 0ZM12.6905 14.8571V32.5H6.83333V14.8571H12.6905ZM6.83333 9.72214C6.83333 8.42214 8.00476 7.42857 9.7619 7.42857C11.519 7.42857 12.6221 8.42214 12.6905 9.72214C12.6905 11.0221 11.5971 12.0714 9.7619 12.0714C8.00476 12.0714 6.83333 11.0221 6.83333 9.72214ZM34.1667 32.5H28.3095C28.3095 32.5 28.3095 23.9014 28.3095 23.2143C28.3095 21.3571 27.3333 19.5 24.8929 19.4629H24.8148C22.4524 19.4629 21.4762 21.3757 21.4762 23.2143C21.4762 24.0593 21.4762 32.5 21.4762 32.5H15.619V14.8571H21.4762V17.2343C21.4762 17.2343 23.3602 14.8571 27.1479 14.8571C31.0233 14.8571 34.1667 17.3921 34.1667 22.5271V32.5Z" fill="#1BD845"/>
</svg>
