<svg width="45" height="43" viewBox="0 0 45 43" fill="none" xmlns="http://www.w3.org/2000/svg">
<path d="M39.8462 13.9405C41.7048 14.5558 43 16.3845 43 18.484V27.7703C43 30.2317 41.2191 32.3203 38.8369 32.5218C38.1221 32.5803 37.4072 32.6345 36.6923 32.6778V39.375L30.3846 32.875C27.5377 32.875 24.7203 32.7558 21.9323 32.5218C21.3254 32.4713 20.735 32.2928 20.1977 31.9975M39.8462 13.9405C39.5213 13.8327 39.1855 13.7637 38.8453 13.7347C33.2145 13.253 27.5547 13.253 21.9239 13.7347C19.5459 13.9383 17.7692 16.0248 17.7692 18.484V27.7703C17.7692 29.5838 18.7364 31.1937 20.1977 31.9975M39.8462 13.9405V9.88017C39.8462 6.368 37.424 3.32384 34.0431 2.871C29.6925 2.28988 25.31 1.99895 20.9231 2C16.4762 2 12.0965 2.29684 7.80308 2.871C4.42215 3.32384 2 6.368 2 9.88017V23.3698C2 26.882 4.42215 29.9262 7.80308 30.379C9.01626 30.5415 10.2357 30.6823 11.4615 30.7993V41L20.1977 31.9975" stroke="#1BD745" stroke-width="3" stroke-linecap="round" stroke-linejoin="round"/>
</svg>
