<svg width="45" height="43" viewBox="0 0 45 43" fill="none" xmlns="http://www.w3.org/2000/svg">
<path d="M15.6667 32.875V35.0568C15.6668 35.9107 15.49 36.7563 15.1465 37.5451C14.8029 38.334 14.2993 39.0508 13.6645 39.6545L12.25 41H32.75L31.3355 39.6545C30.7006 39.0508 30.1971 38.334 29.8535 37.5451C29.51 36.7563 29.3332 35.9107 29.3333 35.0568V32.875M43 6.875V28C43 29.2929 42.46 30.5329 41.4989 31.4471C40.5378 32.3614 39.2342 32.875 37.875 32.875H7.125C5.76577 32.875 4.4622 32.3614 3.50108 31.4471C2.53995 30.5329 2 29.2929 2 28V6.875M43 6.875C43 5.58207 42.46 4.34209 41.4989 3.42785C40.5378 2.51361 39.2342 2 37.875 2H7.125C5.76577 2 4.4622 2.51361 3.50108 3.42785C2.53995 4.34209 2 5.58207 2 6.875M43 6.875V21.5C43 22.7929 42.46 24.0329 41.4989 24.9471C40.5378 25.8614 39.2342 26.375 37.875 26.375H7.125C5.76577 26.375 4.4622 25.8614 3.50108 24.9471C2.53995 24.0329 2 22.7929 2 21.5V6.875" stroke="#1BD745" stroke-width="3" stroke-linecap="round" stroke-linejoin="round"/>
</svg>
