<svg width="45" height="43" viewBox="0 0 45 43" fill="none" xmlns="http://www.w3.org/2000/svg">
<path d="M28.0909 16.1818L33.6818 21.5L28.0909 26.8182M16.9091 26.8182L11.3182 21.5L16.9091 16.1818M7.59091 41H37.4091C38.8919 41 40.314 40.4397 41.3625 39.4423C42.411 38.445 43 37.0923 43 35.6818V7.31818C43 5.90771 42.411 4.55501 41.3625 3.55766C40.314 2.56031 38.8919 2 37.4091 2H7.59091C6.10811 2 4.68604 2.56031 3.63754 3.55766C2.58904 4.55501 2 5.90771 2 7.31818V35.6818C2 37.0923 2.58904 38.445 3.63754 39.4423C4.68604 40.4397 6.10811 41 7.59091 41Z" stroke="#1BD745" stroke-width="3" stroke-linecap="round" stroke-linejoin="round"/>
</svg>
